<svg width="22" height="18" viewBox="0 0 22 18" fill="none" xmlns="http://www.w3.org/2000/svg">
<path d="M11 0C8.946 0 6.98401 0.689004 5.40601 1.938C4.97301 2.28 4.907 2.91099 5.25 3.34399C5.593 3.77699 6.22301 3.843 6.65601 3.5C7.88301 2.529 9.401 2 11 2C14.866 2 18 5.134 18 9H16L19 13L22 9H20C20 4.029 15.971 0 11 0ZM3 5L0 9H2C2 13.971 6.029 18 11 18C13.055 18 15.016 17.312 16.594 16.062C17.027 15.72 17.093 15.089 16.75 14.656C16.407 14.223 15.777 14.157 15.344 14.5C14.116 15.472 12.6 16 11 16C7.134 16 4 12.866 4 9H6L3 5Z" fill="#D9D9D9"/>
<path d="M11 0C8.946 0 6.98401 0.689004 5.40601 1.938C4.97301 2.28 4.907 2.91099 5.25 3.34399C5.593 3.77699 6.22301 3.843 6.65601 3.5C7.88301 2.529 9.401 2 11 2C14.866 2 18 5.134 18 9H16L19 13L22 9H20C20 4.029 15.971 0 11 0ZM3 5L0 9H2C2 13.971 6.029 18 11 18C13.055 18 15.016 17.312 16.594 16.062C17.027 15.72 17.093 15.089 16.75 14.656C16.407 14.223 15.777 14.157 15.344 14.5C14.116 15.472 12.6 16 11 16C7.134 16 4 12.866 4 9H6L3 5Z" fill="black" fill-opacity="0.2"/>
<path d="M11 0C8.946 0 6.98401 0.689004 5.40601 1.938C4.97301 2.28 4.907 2.91099 5.25 3.34399C5.593 3.77699 6.22301 3.843 6.65601 3.5C7.88301 2.529 9.401 2 11 2C14.866 2 18 5.134 18 9H16L19 13L22 9H20C20 4.029 15.971 0 11 0ZM3 5L0 9H2C2 13.971 6.029 18 11 18C13.055 18 15.016 17.312 16.594 16.062C17.027 15.72 17.093 15.089 16.75 14.656C16.407 14.223 15.777 14.157 15.344 14.5C14.116 15.472 12.6 16 11 16C7.134 16 4 12.866 4 9H6L3 5Z" fill="black" fill-opacity="0.2"/>
<path d="M11 0C8.946 0 6.98401 0.689004 5.40601 1.938C4.97301 2.28 4.907 2.91099 5.25 3.34399C5.593 3.77699 6.22301 3.843 6.65601 3.5C7.88301 2.529 9.401 2 11 2C14.866 2 18 5.134 18 9H16L19 13L22 9H20C20 4.029 15.971 0 11 0ZM3 5L0 9H2C2 13.971 6.029 18 11 18C13.055 18 15.016 17.312 16.594 16.062C17.027 15.72 17.093 15.089 16.75 14.656C16.407 14.223 15.777 14.157 15.344 14.5C14.116 15.472 12.6 16 11 16C7.134 16 4 12.866 4 9H6L3 5Z" fill="black" fill-opacity="0.2"/>
<path d="M11 0C8.946 0 6.98401 0.689004 5.40601 1.938C4.97301 2.28 4.907 2.91099 5.25 3.34399C5.593 3.77699 6.22301 3.843 6.65601 3.5C7.88301 2.529 9.401 2 11 2C14.866 2 18 5.134 18 9H16L19 13L22 9H20C20 4.029 15.971 0 11 0ZM3 5L0 9H2C2 13.971 6.029 18 11 18C13.055 18 15.016 17.312 16.594 16.062C17.027 15.72 17.093 15.089 16.75 14.656C16.407 14.223 15.777 14.157 15.344 14.5C14.116 15.472 12.6 16 11 16C7.134 16 4 12.866 4 9H6L3 5Z" fill="black" fill-opacity="0.2"/>
<path d="M11 0C8.946 0 6.98401 0.689004 5.40601 1.938C4.97301 2.28 4.907 2.91099 5.25 3.34399C5.593 3.77699 6.22301 3.843 6.65601 3.5C7.88301 2.529 9.401 2 11 2C14.866 2 18 5.134 18 9H16L19 13L22 9H20C20 4.029 15.971 0 11 0ZM3 5L0 9H2C2 13.971 6.029 18 11 18C13.055 18 15.016 17.312 16.594 16.062C17.027 15.72 17.093 15.089 16.75 14.656C16.407 14.223 15.777 14.157 15.344 14.5C14.116 15.472 12.6 16 11 16C7.134 16 4 12.866 4 9H6L3 5Z" fill="black" fill-opacity="0.2"/>
<path d="M11 0C8.946 0 6.98401 0.689004 5.40601 1.938C4.97301 2.28 4.907 2.91099 5.25 3.34399C5.593 3.77699 6.22301 3.843 6.65601 3.5C7.88301 2.529 9.401 2 11 2C14.866 2 18 5.134 18 9H16L19 13L22 9H20C20 4.029 15.971 0 11 0ZM3 5L0 9H2C2 13.971 6.029 18 11 18C13.055 18 15.016 17.312 16.594 16.062C17.027 15.72 17.093 15.089 16.75 14.656C16.407 14.223 15.777 14.157 15.344 14.5C14.116 15.472 12.6 16 11 16C7.134 16 4 12.866 4 9H6L3 5Z" fill="black" fill-opacity="0.2"/>
<path d="M11 0C8.946 0 6.98401 0.689004 5.40601 1.938C4.97301 2.28 4.907 2.91099 5.25 3.34399C5.593 3.77699 6.22301 3.843 6.65601 3.5C7.88301 2.529 9.401 2 11 2C14.866 2 18 5.134 18 9H16L19 13L22 9H20C20 4.029 15.971 0 11 0ZM3 5L0 9H2C2 13.971 6.029 18 11 18C13.055 18 15.016 17.312 16.594 16.062C17.027 15.72 17.093 15.089 16.75 14.656C16.407 14.223 15.777 14.157 15.344 14.5C14.116 15.472 12.6 16 11 16C7.134 16 4 12.866 4 9H6L3 5Z" fill="black" fill-opacity="0.2"/>
</svg>
