<svg width="22" height="22" viewBox="0 0 22 22" fill="none" xmlns="http://www.w3.org/2000/svg">
<path d="M0.785721 16.1698C0.784961 16.3697 0.838688 16.5661 0.941129 16.7377C1.04357 16.9095 1.19085 17.05 1.36715 17.1441C1.54044 17.248 1.73869 17.3028 1.94073 17.3028C2.14275 17.3028 2.341 17.248 2.5143 17.1441L10.4972 11.9584C10.6529 11.859 10.7811 11.7219 10.8699 11.5599C10.9587 11.3979 11.0052 11.2161 11.0052 11.0313C11.0052 10.8465 10.9587 10.6647 10.8699 10.5027C10.7811 10.3406 10.6529 10.2036 10.4972 10.1041L2.5143 4.887C2.341 4.78313 2.14275 4.72827 1.94073 4.72827C1.73869 4.72827 1.54044 4.78313 1.36715 4.887C1.19085 4.98124 1.04357 5.12174 0.941129 5.29339C0.838688 5.46505 0.784961 5.66139 0.785721 5.86129V16.1698Z" stroke="white" stroke-linecap="round" stroke-linejoin="round"/>
<path d="M10.9948 16.1698C10.9941 16.3697 11.0478 16.5661 11.1502 16.7377C11.2527 16.9095 11.4 17.05 11.5763 17.1441C11.7496 17.248 11.9478 17.3028 12.1498 17.3028C12.3519 17.3028 12.5501 17.248 12.7234 17.1441L20.7062 11.9584C20.862 11.859 20.9902 11.7219 21.079 11.5599C21.1678 11.3979 21.2143 11.2161 21.2143 11.0313C21.2143 10.8465 21.1678 10.6647 21.079 10.5027C20.9902 10.3406 20.862 10.2036 20.7062 10.1041L12.7234 4.887C12.5501 4.78313 12.3519 4.72827 12.1498 4.72827C11.9478 4.72827 11.7496 4.78313 11.5763 4.887C11.4046 4.97868 11.2603 5.11426 11.1582 5.27991C11.0561 5.44553 10.9997 5.63532 10.9948 5.82986V16.1698Z" stroke="white" stroke-linecap="round" stroke-linejoin="round"/>
<path d="M21.2143 3.92847V18.0713" stroke="white" stroke-linecap="round" stroke-linejoin="round"/>
</svg>
