<svg width="22" height="22" viewBox="0 0 22 22" fill="none" xmlns="http://www.w3.org/2000/svg">
<path d="M21.2143 16.1698C21.2151 16.3697 21.1613 16.5661 21.0589 16.7377C20.9564 16.9095 20.8092 17.05 20.6329 17.1441C20.4595 17.248 20.2614 17.3028 20.0593 17.3028C19.8572 17.3028 19.659 17.248 19.4857 17.1441L11.5029 11.927C11.3471 11.8276 11.2189 11.6905 11.1302 11.5285C11.0414 11.3664 10.9948 11.1846 10.9948 10.9999C10.9948 10.8151 11.0414 10.6333 11.1302 10.4712C11.2189 10.3092 11.3471 10.1721 11.5029 10.0727L19.4857 4.887C19.659 4.78313 19.8572 4.72827 20.0593 4.72827C20.2614 4.72827 20.4595 4.78313 20.6329 4.887C20.8092 4.98124 20.9564 5.12174 21.0589 5.29339C21.1613 5.46505 21.2151 5.66139 21.2143 5.86129V16.1698Z" stroke="white" stroke-linecap="round" stroke-linejoin="round"/>
<path d="M11.0052 16.1698C11.006 16.3697 10.9522 16.5661 10.8498 16.7377C10.7473 16.9095 10.6001 17.05 10.4238 17.1441C10.2505 17.248 10.0522 17.3028 9.85019 17.3028C9.64816 17.3028 9.44991 17.248 9.27661 17.1441L1.29376 11.927C1.13803 11.8276 1.00985 11.6905 0.921052 11.5285C0.832258 11.3664 0.785714 11.1846 0.785714 10.9999C0.785714 10.8151 0.832258 10.6333 0.921052 10.4712C1.00985 10.3092 1.13803 10.1721 1.29376 10.0727L9.27661 4.887C9.44991 4.78313 9.64816 4.72827 9.85019 4.72827C10.0522 4.72827 10.2505 4.78313 10.4238 4.887C10.5954 4.97868 10.7397 5.11426 10.8418 5.27991C10.944 5.44553 11.0003 5.63532 11.0052 5.82986V16.1698Z" stroke="white" stroke-linecap="round" stroke-linejoin="round"/>
<path d="M0.785714 3.92847V18.0713" stroke="white" stroke-linecap="round" stroke-linejoin="round"/>
</svg>
