<svg viewBox="0 0 1071.454 1045.334" xmlns="http://www.w3.org/2000/svg"><path d="M512 21.333c282.633.34 511.66 229.368 512 511.968v.033c.002.518.003 1.13.003 1.743 0 124.96-45.345 239.327-120.478 327.548l.592-.712 167.337 183.42H512c-282.77 0-512-229.23-512-512s229.23-512 512-512zm389.62 949.073l-99.453-109.193 24.526-25.275c75.695-77.636 122.383-183.863 122.383-300.994 0-.566 0-1.133-.003-1.7v.09C949.073 291.943 753.39 96.26 512 96.26S74.927 291.944 74.927 533.333c0 241.39 195.684 437.073 437.073 437.073z"/></svg>