<svg fill="none" height="24" viewBox="0 0 24 24" width="24" xmlns="http://www.w3.org/2000/svg"><g fill="#000"><path d="m14.7767 14.0377 2.65-3.9195c.2623-.38605-.2351-.80569-.615-.52873l-2.8581 2.01433c-.0939.0653-.2082.1007-.3256.1007s-.2317-.0354-.3256-.1007l-2.1164-1.4772c-.6331-.43641-1.53758-.27695-1.96267.3357l-2.65005 3.9195c-.26229.3861.23516.8057.61503.5287l2.85809-2.0143c.0939-.0653.2082-.1007.3256-.1007s.2317.0354.3256.1007l2.1164 1.452c.6331.4616 1.5376.3022 1.9627-.3105z"/><path clip-rule="evenodd" d="m12 2.25c-5.38478 0-9.75 4.36522-9.75 9.75 0 2.7651 1.15194 5.2621 3 7.0356v2.4644c0 .2411.11589.4675.31147.6084.19557.141.44699.1794.6757.1031l2.77966-.9265c.94109.3021 1.94377.465 2.98317.465 5.3848 0 9.75-4.3652 9.75-9.75 0-5.38478-4.3652-9.75-9.75-9.75zm-8.25 9.75c0-4.55635 3.69365-8.25 8.25-8.25 4.5563 0 8.25 3.69365 8.25 8.25 0 4.5563-3.6937 8.25-8.25 8.25-.9595 0-1.8793-.1635-2.73388-.4635-.15696-.0552-.3278-.0565-.48562-.0039l-2.0305.6768v-1.7511c0-.2133-.09085-.4166-.24981-.5588-1.68901-1.5117-2.75019-3.7062-2.75019-6.1495z" fill-rule="evenodd"/></g></svg>