<svg xmlns="http://www.w3.org/2000/svg"  viewBox="0 0 64 64" width="128px" height="128px"><linearGradient id="sHY1CI8Ori38MeFTisdAMa" x1="20" x2="20" y1="28.626" y2="35.541" gradientUnits="userSpaceOnUse" spreadMethod="reflect"><stop offset="0" stop-color="#6dc7ff"/><stop offset="1" stop-color="#e6abff"/></linearGradient><path fill="url(#sHY1CI8Ori38MeFTisdAMa)" d="M20 29A3 3 0 1 0 20 35A3 3 0 1 0 20 29Z"/><linearGradient id="sHY1CI8Ori38MeFTisdAMb" x1="45" x2="45" y1="5.667" y2="59.355" gradientUnits="userSpaceOnUse" spreadMethod="reflect"><stop offset="0" stop-color="#1a6dff"/><stop offset="1" stop-color="#c822ff"/></linearGradient><path fill="url(#sHY1CI8Ori38MeFTisdAMb)" d="M40 26H50V28H40z"/><linearGradient id="sHY1CI8Ori38MeFTisdAMc" x1="45" x2="45" y1="5.667" y2="59.355" gradientUnits="userSpaceOnUse" spreadMethod="reflect"><stop offset="0" stop-color="#1a6dff"/><stop offset="1" stop-color="#c822ff"/></linearGradient><path fill="url(#sHY1CI8Ori38MeFTisdAMc)" d="M40 22H50V24H40z"/><linearGradient id="sHY1CI8Ori38MeFTisdAMd" x1="45" x2="45" y1="5.667" y2="59.355" gradientUnits="userSpaceOnUse" spreadMethod="reflect"><stop offset="0" stop-color="#1a6dff"/><stop offset="1" stop-color="#c822ff"/></linearGradient><path fill="url(#sHY1CI8Ori38MeFTisdAMd)" d="M40 30H50V32H40z"/><linearGradient id="sHY1CI8Ori38MeFTisdAMe" x1="45" x2="45" y1="5.668" y2="59.355" gradientUnits="userSpaceOnUse" spreadMethod="reflect"><stop offset="0" stop-color="#1a6dff"/><stop offset="1" stop-color="#c822ff"/></linearGradient><path fill="url(#sHY1CI8Ori38MeFTisdAMe)" d="M45,34c-2.206,0-4,1.794-4,4c0,2.206,1.794,4,4,4s4-1.794,4-4C49,35.794,47.206,34,45,34z M45,40c-1.103,0-2-0.897-2-2s0.897-2,2-2s2,0.897,2,2S46.102,40,45,40z"/><linearGradient id="sHY1CI8Ori38MeFTisdAMf" x1="32" x2="32" y1="5.668" y2="59.355" gradientUnits="userSpaceOnUse" spreadMethod="reflect"><stop offset="0" stop-color="#1a6dff"/><stop offset="1" stop-color="#c822ff"/></linearGradient><path fill="url(#sHY1CI8Ori38MeFTisdAMf)" d="M56.767,6.306c-0.743-0.309-1.594-0.143-2.167,0.428L53.102,8.23l-2.524-1.843 c-0.704-0.516-1.651-0.517-2.355-0.001l-2.62,1.917l-2.624-1.916c-0.703-0.516-1.65-0.517-2.355-0.001l-2.62,1.917l-2.625-1.916 c-0.703-0.516-1.65-0.517-2.355-0.001l-2.62,1.917l-2.624-1.916c-0.703-0.516-1.65-0.517-2.355-0.001l-2.521,1.843L21.4,6.734 c-0.574-0.571-1.425-0.739-2.167-0.428C18.484,6.616,18,7.344,18,8.157V22H8.001C6.898,22,6,22.898,6,24.001v16 c0,1.103,0.898,2,2.001,2H18v6h-8v5c0,2.757,2.244,5,5,5h37.999C55.756,58,58,55.757,58,53V8.157 C58,7.344,57.516,6.616,56.767,6.306z M32,27.899C30.044,27.501,28.5,26,28.101,24H32V27.899z M26.08,24 c0.441,3,2.861,5.48,5.92,5.92v4.16c-3.059,0.44-5.479,2.92-5.92,5.92H13.921C13.48,37,11,34.521,8,34.08v-4.16 c3-0.44,5.48-2.92,5.921-5.92H26.08z M32,36.101V40h-3.899C28.5,38,30.044,36.5,32,36.101z M11.899,24C11.501,26,10,27.501,8,27.899 V24H11.899z M8,36.101C10,36.5,11.501,38,11.899,40H8V36.101z M15,56c-1.654,0-3-1.346-3-3v-3h36v3c0,1.125,0.373,2,1.001,3H15z M56,53c0,1.654-1.346,3-3,3s-3-1.346-3-3v-5H20v-6h12c1.103,0,2-0.897,2-2v-16C34,22.898,33.103,22,32,22H20L19.99,8.151 l1.502,1.495c0.7,0.696,1.786,0.779,2.586,0.198l2.52-1.844l2.625,1.917c0.706,0.515,1.65,0.513,2.354,0l2.62-1.917l2.626,1.917 c0.705,0.514,1.648,0.514,2.353,0l2.621-1.917l2.625,1.917c0.706,0.515,1.65,0.513,2.354,0l2.62-1.917l2.526,1.844 c0.797,0.582,1.885,0.499,2.585-0.198L56,8.157V53z"/></svg>