<svg xmlns="http://www.w3.org/2000/svg"  viewBox="0 0 64 64" width="64px" height="64px"><ellipse cx="32" cy="61" opacity=".3" rx="19" ry="3"/><path fill="#37d0ee" d="M45.381,51.508c-1.384,1.722-3.902,1.995-5.624,0.611L17.375,34.125 c-2.035-1.635-2.849-4.471-1.748-7.079c0.37-0.877,0.985-1.631,1.712-2.245l22.369-18.86c1.689-1.424,4.212-1.209,5.636,0.48 l2.578,3.058c1.424,1.689,1.209,4.213-0.48,5.637L30.573,29.339l16.703,13.428c1.722,1.384,1.995,3.902,0.611,5.624L45.381,51.508 z"/><path d="M47.276,42.767l-11.988-9.638c-0.059,0.066-0.129,0.118-0.185,0.188c-1.73,2.152-1.388,5.3,0.764,7.029l7.575,6.09 c-1.005,1.946-0.61,4.352,1.007,5.894c0.341-0.224,0.663-0.487,0.933-0.823l2.506-3.117C49.271,46.669,48.998,44.151,47.276,42.767 z" opacity=".15"/><path fill="#fff" d="M47.923,9.478L45.345,6.42c-1.424-1.689-3.948-1.904-5.636-0.48L25.178,18.192c0,0,0,0,0,0 c0.989,1.174,2.402,1.777,3.825,1.777c1.138,0,2.283-0.387,3.221-1.178l10.021-8.449c1.791,1.419,4.369,1.448,6.212-0.021 C48.312,10.027,48.145,9.74,47.923,9.478z" opacity=".3"/><path fill="#fff" d="M35.501,16c-0.43,0-0.856-0.184-1.153-0.54c-0.53-0.636-0.444-1.582,0.192-2.112l6-5 c0.638-0.53,1.583-0.444,2.113,0.192c0.53,0.636,0.444,1.582-0.192,2.112l-6,5C36.18,15.886,35.839,16,35.501,16z"/></svg>