<svg xmlns="http://www.w3.org/2000/svg"  viewBox="0 0 256 256" width="64px" height="64px"><path fill="#ebe7f2" d="M158.399,166.215H67.667v40.035H188.25v-16.616C173.814,189.596,161.712,179.637,158.399,166.215z"/><path fill="#846f75" d="M188.333,197c-1.381,0-2.5,1.119-2.5,2.5v4.294H70.167v-53.467c0-18.538,15.082-33.62,33.621-33.62h8.603 c1.154,0,2.158-0.79,2.43-1.911s-0.259-2.283-1.285-2.812c-10.591-5.456-17.17-16.24-17.17-28.143 c0-17.444,14.192-31.636,31.636-31.636s31.636,14.191,31.636,31.636c0,11.902-6.579,22.687-17.17,28.143 c-1.025,0.528-1.557,1.69-1.285,2.812s1.276,1.911,2.43,1.911h8.603c3.808,0,7.542,0.631,11.099,1.874 c1.304,0.457,2.729-0.231,3.185-1.534s-0.231-2.729-1.535-3.185c-4.088-1.431-8.378-2.155-12.75-2.155h-0.408 c8.062-6.869,12.831-16.962,12.831-27.865c0-20.201-16.435-36.636-36.636-36.636S91.364,63.641,91.364,83.842 c0,10.903,4.768,20.996,12.831,27.865h-0.408c-21.295,0-38.621,17.325-38.621,38.62v55.967c0,1.381,1.119,2.5,2.5,2.5h120.667 c1.381,0,2.5-1.119,2.5-2.5V199.5C190.833,198.119,189.714,197,188.333,197z"/><path fill="#ebe7f2" d="M188.333,179.998c-15.389,0-28.143-11.274-30.456-26.013c-0.247,1.57-0.375,3.18-0.375,4.819 c0,17.028,13.804,30.831,30.831,30.831s30.831-13.804,30.831-30.831c0-1.639-0.128-3.249-0.375-4.819 C216.477,168.724,203.722,179.998,188.333,179.998z"/><path fill="#ed9abc" d="M198.351,163.176c-0.453-1.052-1.113-1.982-1.961-2.765c-0.804-0.743-1.787-1.394-2.92-1.934 c-1.054-0.503-2.25-0.976-3.55-1.404c-1.236-0.412-2.257-0.827-3.033-1.234c-0.711-0.372-1.265-0.757-1.647-1.144 c-0.33-0.334-0.546-0.671-0.662-1.03c-0.138-0.429-0.208-0.937-0.208-1.511c0-0.568,0.091-1.106,0.27-1.598 c0.167-0.46,0.416-0.853,0.76-1.202c0.338-0.343,0.79-0.622,1.343-0.831c0.587-0.221,1.311-0.334,2.151-0.334 c0.77,0,1.445,0.128,2.008,0.38c0.555,0.248,1.005,0.584,1.374,1.025c0.384,0.459,0.68,1.016,0.879,1.655 c0.213,0.684,0.322,1.452,0.322,2.282l0,0c0,0.817,0.663,1.48,1.48,1.48h2.373c0.817,0,1.48-0.663,1.48-1.48l0,0 c0-1.487-0.191-2.847-0.567-4.044c-0.39-1.239-0.97-2.322-1.725-3.221c-0.765-0.909-1.708-1.638-2.804-2.166 c-0.391-0.188-0.802-0.351-1.232-0.488c-0.614-0.195-1.032-0.765-1.032-1.409v-1.616c0-0.817-0.663-1.48-1.48-1.48h-2.034 c-0.817,0-1.48,0.663-1.48,1.48v1.574c0,0.653-0.427,1.232-1.053,1.416c-0.394,0.115-0.772,0.251-1.134,0.407 c-1.082,0.466-2.024,1.1-2.8,1.884c-0.786,0.794-1.396,1.742-1.814,2.819c-0.411,1.058-0.619,2.238-0.619,3.507 c0,1.393,0.228,2.632,0.677,3.683c0.453,1.06,1.116,1.998,1.972,2.789c0.811,0.75,1.797,1.404,2.931,1.945 c1.055,0.503,2.257,0.969,3.571,1.385c1.142,0.398,2.106,0.8,2.865,1.195c0.696,0.362,1.251,0.745,1.648,1.137 c0.354,0.349,0.596,0.707,0.741,1.092c0.156,0.416,0.235,0.905,0.235,1.455c0,0.56-0.101,1.067-0.308,1.549 c-0.201,0.468-0.49,0.866-0.882,1.215c-0.408,0.364-0.923,0.659-1.533,0.88c-0.625,0.226-1.365,0.341-2.199,0.341 c-0.673,0-1.366-0.089-2.062-0.264c-0.622-0.157-1.167-0.422-1.667-0.81c-0.483-0.376-0.875-0.876-1.196-1.53 c-0.316-0.642-0.476-1.502-0.476-2.557l0,0c0-0.817-0.663-1.48-1.48-1.48h-2.393c-0.817,0-1.48,0.663-1.48,1.48l0,0 c0,1.741,0.28,3.263,0.832,4.523c0.558,1.274,1.321,2.338,2.267,3.164c0.928,0.811,2.003,1.424,3.195,1.824 c0.329,0.111,0.663,0.208,0.999,0.293c0.652,0.165,1.103,0.758,1.103,1.431v1.251c0,0.817,0.663,1.48,1.48,1.48h2.014 c0.817,0,1.48-0.663,1.48-1.48v-1.315c0-0.661,0.438-1.246,1.075-1.423c0.396-0.11,0.779-0.239,1.147-0.387 c1.117-0.448,2.091-1.068,2.897-1.842c0.82-0.788,1.457-1.736,1.893-2.818c0.429-1.063,0.646-2.263,0.646-3.565 C199.031,165.454,198.802,164.223,198.351,163.176z"/><path fill="#ed9abc" d="M200.697,127.841l5.423-20.426c0.199-0.75,0.039-1.551-0.435-2.166c-0.473-0.615-1.205-0.976-1.981-0.976 h-30.74c-0.776,0-1.508,0.36-1.981,0.976c-0.474,0.615-0.634,1.416-0.435,2.166l5.422,20.425 c-12.634,5.025-20.967,17.184-20.967,30.964c0,18.379,14.952,33.331,33.331,33.331c18.378,0,33.331-14.952,33.331-33.331 C221.664,145.023,213.332,132.865,200.697,127.841z M200.453,109.273l-4.543,17.113c-2.355-0.497-4.933-0.755-7.71-0.755 c-2.507,0-5.028,0.28-7.432,0.797l-4.554-17.156H200.453z M188.333,187.135c-15.622,0-28.331-12.709-28.331-28.331 c0-12.237,7.735-22.956,19.287-26.842c0.054-0.013,0.108-0.021,0.162-0.037c2.68-0.834,5.787-1.293,8.749-1.293 c3.248,0,6.267,0.405,8.734,1.171c11.801,3.755,19.73,14.605,19.73,27.001C216.664,174.426,203.955,187.135,188.333,187.135z"/><path fill="#ed9abc" d="M188.333,119.5c-1.381,0-2.5-1.119-2.5-2.5v-10.227c0-1.381,1.119-2.5,2.5-2.5s2.5,1.119,2.5,2.5V117 C190.833,118.381,189.714,119.5,188.333,119.5z"/></svg>