<svg xmlns="http://www.w3.org/2000/svg"  viewBox="0 0 48 48" width="48px" height="48px"><path fill="#424242" d="M40.184,45h-4.368C35.365,45,35,44.635,35,44.184V40h6v4.184C41,44.635,40.635,45,40.184,45z"/><path fill="#424242" d="M7.816,45h4.368C12.635,45,13,44.635,13,44.184V40H7v4.184C7,44.635,7.365,45,7.816,45z"/><path fill="#1565c0" d="M39.901,24h-3.466l1.026,2.59l1.255,1.268h0.001c0.041,0.042,0.088,0.092,0.133,0.141h2.066 C42.213,28,43,27.645,43,26.588C43,25.532,42.473,24,39.901,24z"/><path fill="#1565c0" d="M8.099,24h3.466l-1.026,2.59l-1.255,1.268H9.283C9.241,27.901,9.195,27.951,9.149,28H7.083 C5.787,28,5,27.645,5,26.588C5,25.532,5.527,24,8.099,24z"/><path fill="#0277bd" d="M39.428,27.155l-1.112-1.123l-2.679-6.762C35.094,17.9,33.778,17,32.314,17H15.686 c-1.464,0-2.78,0.9-3.323,2.27l-2.679,6.762l-1.112,1.123C7.679,28.056,7,29.236,7,30.5c0,0.486,0,7.274,0,7.274V40 c0,0,2.125,2,17,2s17-2,17-2v-2.226c0,0,0-6.788,0-7.274C41,29.236,40.321,28.056,39.428,27.155z"/><path fill="#bbdefb" d="M41,30.986L35,32l0,0c0,1.105,0.895,2,2,2h4V30.986z"/><path fill="#bbdefb" d="M7,34h4c1.105,0,2-0.895,2-2l0,0l-6-1.014V34z"/><path fill="#bbdefb" d="M33.778,20.007C33.535,19.395,32.961,19,32.314,19H15.686c-0.647,0-1.221,0.395-1.464,1.007 L11.452,27h25.097L33.778,20.007z"/><path fill="#424242" d="M16,33l1.534,3.681c0.328,0.787,0.971,1.377,1.763,1.627C20.328,38.636,21.939,39,24,39 s3.672-0.364,4.703-0.692c0.792-0.25,1.435-0.841,1.763-1.627L32,33H16z"/><g><path fill="#1565c0" d="M15.686,19h16.628c0.183,0,0.357,0.039,0.523,0.098c0.46-0.502,0.88-1.039,1.25-1.613 C33.557,17.179,32.952,17,32.314,17H15.686c-0.638,0-1.243,0.179-1.773,0.485c0.37,0.574,0.79,1.112,1.25,1.613 C15.329,19.039,15.503,19,15.686,19z"/><path fill="#64b5f6" d="M15.686,19c-0.183,0-0.357,0.039-0.523,0.098C17.357,21.491,20.498,23,24,23 s6.643-1.509,8.837-3.902C32.671,19.039,32.497,19,32.314,19H15.686z"/><path fill="#ffc107" d="M34,11c0,5.5-4.5,10-10,10s-10-4.5-10-10S18.5,1,24,1S34,5.5,34,11"/><path fill="#ffe082" d="M24,4c-3.898,0-7,3.102-7,7s3.102,7,7,7s7-3.102,7-7S27.898,4,24,4z M24.301,15.102V16.2h-0.902 v-1.098c-0.297,0-2.297-0.203-2.297-2.5H22.7c0,0.297,0,1.297,1.199,1.297c1,0,1-0.797,1-0.898c0-1.699-3.5-1-3.5-3.699 c0-1.602,1.5-2.102,2.102-2.199V5.898h0.898v1.203c0.5,0.098,2,0.5,2,2.5h-1.5c0-0.402-0.098-1.301-1-1.301 C23,8.301,23,9.102,23,9.199c0,1.602,3.5,1,3.5,3.699C26.398,14.801,24.602,15,24.301,15.102z"/></g></svg>