<svg xmlns="http://www.w3.org/2000/svg"  viewBox="0 0 64 64" width="64px" height="64px"><circle cx="32" cy="32" r="29" fill="#ccc"/><path fill="#f25f5c" d="M61,50.99811l-.28-8.06a4.691,4.691,0,0,0-.84-1.95v-.01a5.09152,5.09152,0,0,0-.81-.86,4.7623,4.7623,0,0,0-3.07-1.12h-.38a3.99909,3.99909,0,1,0-5.24,0H50l-10,3v3l9-2-1.53,14.53-.47,4.47h4L53,51l2,10.99811h4l-1.1-11Z"/><rect width="1" height="8.353" x="57.762" y="42.648" fill="#d95552" transform="rotate(-1.343 58.262 46.825)"/><path fill="#31bdf9" d="M24.5,41.99811l-10-3h-.38a4.00006,4.00006,0,1,0-5.24,0H8.5a4.7623,4.7623,0,0,0-3.07,1.12,5.09152,5.09152,0,0,0-.81.86v.01a4.691,4.691,0,0,0-.84,1.95l-.28,8.06H6.6l-1.1,11h4L11.5,51l2,10.99811h4l-.47-4.47-1.53-14.53,9,2Z"/><rect width="8.353" height="1" x="2.062" y="46.325" fill="#2ba4d9" transform="rotate(-88.657 6.238 46.825)"/><circle cx="6" cy="6" r="4" fill="#ffc34d"/><circle cx="58" cy="6" r="4" fill="#ffc34d"/><path fill="#ffe066" d="M40,43a8.00088,8.00088,0,1,0-14.061,5.21332A8.00473,8.00473,0,0,1,28,53.42036V54h8v-.58274a7.88488,7.88488,0,0,1,2.03113-5.16949A7.94937,7.94937,0,0,0,40,43Z"/><rect width="6" height="2" x="29" y="56" fill="#ffc34d"/><path fill="#ffc34d" d="M31,39V37a5.00588,5.00588,0,0,0-5,5h2A3.00328,3.00328,0,0,1,31,39Z"/><path fill="#979994" d="M31.2002,12h1.5996A2.20245,2.20245,0,0,1,35,14.2002h2a4.19536,4.19536,0,0,0-4-4.17994V7H31v3.02026a4.19536,4.19536,0,0,0-4,4.17994v1.5996A4.20506,4.20506,0,0,0,31.2002,20h1.5996A2.20245,2.20245,0,0,1,35,22.2002v1.5996A2.20245,2.20245,0,0,1,32.7998,26H31.2002A2.20245,2.20245,0,0,1,29,23.7998V23H27v.7998a4.19536,4.19536,0,0,0,4,4.17994V31h2V27.97974a4.19536,4.19536,0,0,0,4-4.17994V22.2002A4.20506,4.20506,0,0,0,32.7998,18H31.2002A2.20245,2.20245,0,0,1,29,15.7998V14.2002A2.20245,2.20245,0,0,1,31.2002,12Z"/><path fill="#b3b5b0" d="M6.18506,28.88135l1.98633.2373A24.05152,24.05152,0,0,1,22.5791,9.91943L21.793,8.08057A26.05735,26.05735,0,0,0,6.18506,28.88135Z"/><path fill="#b3b5b0" d="M41.35986,7.73584l-.71972,1.86621a23.92939,23.92939,0,0,1,15.18847,19.5166l1.98633-.2373A25.92677,25.92677,0,0,0,41.35986,7.73584Z"/><polygon fill="#2691bf" points="9.125 43 10.125 43 10.125 47 12.125 47 12.125 43 13.125 43 13.125 41 9.125 41 9.125 43"/><polygon fill="#bf4b48" points="51 43 52 43 52 47 54 47 54 43 55 43 55 41 51 41 51 43"/></svg>