<svg xmlns="http://www.w3.org/2000/svg"  viewBox="0 0 64 64" width="64px" height="64px"><g data-name="11-vegan"><path fill="#d0c6b8" d="M31,1A31,31,0,1,0,62,32,31,31,0,0,0,31,1Zm0,52A21,21,0,1,1,52,32,21.005,21.005,0,0,1,31,53Z"/><circle cx="31" cy="32" r="21" fill="#f7f4ec"/><path fill="#e9e6de" d="M31,47A20.992,20.992,0,0,1,10.239,29a21,21,0,1,0,41.522,0A20.992,20.992,0,0,1,31,47Z"/><path fill="#d8d1c5" d="M31,9A23,23,0,1,0,54,32,23.006,23.006,0,0,0,31,9Zm0,44A21,21,0,1,1,52,32,21.005,21.005,0,0,1,31,53Z"/><path fill="#3a6206" d="M34.82,37.19C33.95,38.12,33.55,39,32,39s-1.95-.88-2.82-1.81c-.05-.06-.12-.13-.18-.19a2.151,2.151,0,0,0,2-2h2a2.151,2.151,0,0,0,2,2C34.94,37.06,34.87,37.13,34.82,37.19Z"/><path fill="#c1f15d" d="M35,37a3,3,0,0,0,3-3,3,3,0,0,0,3,3c-1.44,0-3.68,3.75-4,8-.1,1.27-.72,2-2,2H29c-1.28,0-1.9-.73-2-2-.32-4.25-2.56-8-4-8a3,3,0,0,0,3-3,3,3,0,0,0,3,3c.06.06.13.13.18.19.82.99.82,2.59.82,4.81a.906.906,0,0,0,1,1h2c.81,0,1-.36,1-1,0-2.22,0-3.82.82-4.81C34.87,37.13,34.94,37.06,35,37Z"/><path fill="#50761e" d="M38,34a3,3,0,0,1-3,3,2.151,2.151,0,0,1-2-2H31a2.151,2.151,0,0,1-2,2,3,3,0,0,1-3-3,3,3,0,0,1-6,0,2.791,2.791,0,0,1-3-3c0-1.63,1.36-2.52,3.04-2.52a3.273,3.273,0,0,1,.45.04A1.944,1.944,0,0,1,20,27a3,3,0,0,1,3-3c.02,1.46,2,2,3,2a3,3,0,0,0,6,0,3,3,0,0,0,6,0c1,0,2.98-.54,3-2a3,3,0,0,1,3,3,1.944,1.944,0,0,1-.49,1.52,3.273,3.273,0,0,1,.45-.04c1.68,0,3.04.89,3.04,2.52a2.791,2.791,0,0,1-3,3,3,3,0,0,1-6,0Z"/><path fill="#99d83e" d="M41,23.98V24c-.02,1.46-2,2-3,2a3,3,0,0,1-6,0,3,3,0,0,1-6,0c-1,0-2.98-.54-3-2v-.02C23,21,24.34,21,26,21h1c-1,0-1-.85-1-1.35A2.835,2.835,0,0,1,29,17c2,0,3,1,3,2,0-1,1-2,3-2a2.835,2.835,0,0,1,3,2.65c0,.5,0,1.35-1,1.35h1C39.66,21,41,21,41,23.98Z"/><path fill="#d0c6b8" d="M32,42a2.458,2.458,0,0,0,2-.883c.013-1.765.11-3.074.817-3.927C33.95,38.12,33.55,39,32,39s-1.95-.88-2.82-1.81c.707.853.8,2.162.817,3.927A2.458,2.458,0,0,0,32,42Z"/><polygon fill="#978d7e" points="9 31 9 34 5 34 5 31 7 31 9 31"/><polygon fill="#978d7e" points="59 31 59 34 55 34 55 31 57 31 59 31"/><path fill="#ca8e57" d="M10,53.84V60a3,3,0,0,1-6,0V34h6Z"/><path fill="#ca8e57" d="M60,45.32V60a3,3,0,0,1-6,0V34h6Z"/><path fill="#e9e6de" d="M1,17H13a4,4,0,0,1-4,4H5a4.018,4.018,0,0,1-4-4Z"/><polygon fill="#f7f4ec" points="10 12 11 1 12.11 8.22 13 14 13 17 1 17 1 14 3 1 4 12 5 12 7 1 9 12 10 12"/><path fill="#e9e6de" d="M57,1c3.31,0,6,5.48,6,11,0,3.42-1.03,6.06-2.6,7.57A4.857,4.857,0,0,1,57,21c-3.31,0-6-3.48-6-9a17.987,17.987,0,0,1,.48-4.11C52.41,4.05,54.53,1,57,1Z"/><path fill="#696356" d="M56,20.882V31h2V20.885A4.688,4.688,0,0,1,57,21,4.627,4.627,0,0,1,56,20.882Z"/><path fill="#99d83e" d="M35.333,45H28.667a2.123,2.123,0,0,1-1.738-.682c.028.226.054.453.071.682.1,1.27.72,2,2,2h6c1.28,0,1.9-.73,2-2,.017-.229.043-.456.071-.682A2.123,2.123,0,0,1,35.333,45Z"/><path fill="#99d83e" d="M41,37a3,3,0,0,1-3-3,3,3,0,0,1-3,3c-.06.06-.13.13-.18.19-.646.78-.782,1.946-.811,3.489A1.854,1.854,0,0,0,35,41a3,3,0,0,0,3-3,2.978,2.978,0,0,0,.478,1.612C39.279,38.029,40.248,37,41,37Z"/><path fill="#99d83e" d="M29,41a1.854,1.854,0,0,0,.991-.321c-.029-1.543-.165-2.709-.811-3.489-.05-.06-.12-.13-.18-.19a3,3,0,0,1-3-3,3,3,0,0,1-3,3c.752,0,1.721,1.029,2.522,2.612A2.978,2.978,0,0,0,26,38,3,3,0,0,0,29,41Z"/><path fill="#3a6206" d="M24,29c0,1.47,1.333,3,4,3s4-1.53,4-3c0,1.47,1.333,3,4,3s4-1.53,4-3c1.333,0,3.973-.54,4-2a3,3,0,0,0-2.8-2.98l-.2-.007C40.965,25.462,39,26,38,26a3,3,0,0,1-6,0,3,3,0,0,1-6,0c-1,0-2.965-.538-3-1.987l-.2.007A3,3,0,0,0,20,27C20.027,28.46,22.667,29,24,29Z"/><path fill="#7fb734" d="M35,25a2.9,2.9,0,0,1-3-3,3,3,0,0,1-6,0,4.291,4.291,0,0,1-2.134-.618c-.535.375-.866,1.119-.866,2.6V24c.02,1.46,2,2,3,2a3,3,0,0,0,6,0,3,3,0,0,0,6,0c1,0,2.98-.54,3-2v-.02c0-1.479-.331-2.223-.866-2.6A4.291,4.291,0,0,1,38,22,2.9,2.9,0,0,1,35,25Z"/><path fill="#9c6330" d="M57,58V34H54V60a3,3,0,0,0,6,0H59A2,2,0,0,1,57,58Z"/><path fill="#696356" d="M57,31v1a1,1,0,0,0,1,1h1v1H55V31Z"/><path fill="#9c6330" d="M7,58V34H4V60a3,3,0,0,0,6,0H9A2,2,0,0,1,7,58Z"/><path fill="#696356" d="M7,31v1a1,1,0,0,0,1,1H9v1H5V31Z"/><path fill="#f7f4ec" d="M57,4c3,0,5.49,4.515,5.925,9.476C62.97,13,63,12.512,63,12c0-5.52-2.69-11-6-11-2.47,0-4.59,3.05-5.52,6.89A17.987,17.987,0,0,0,51,12c0,.509.03.995.074,1.468a18.137,18.137,0,0,1,.406-2.578C52.41,7.05,54.53,4,57,4Z"/><rect width="2" height="10" x="6" y="21" fill="#696356"/><path fill="#d0c6b8" d="M44,34a3,3,0,0,1-3,3c-1.44,0-3.68,3.75-4,8-.1,1.27-.72,2-2,2H29c-1.28,0-1.9-.73-2-2-.32-4.25-2.56-8-4-8a3,3,0,0,1-3-3,2.848,2.848,0,0,1-2.588-1.349A2.323,2.323,0,0,0,17,34a2.791,2.791,0,0,0,3,3,3,3,0,0,0,3,3c1.44,0,3.68,3.75,4,8,.1,1.27.72,2,2,2h6c1.28,0,1.9-.73,2-2,.32-4.25,2.56-8,4-8a3,3,0,0,0,3-3,2.791,2.791,0,0,0,3-3,2.323,2.323,0,0,0-.412-1.349A2.848,2.848,0,0,1,44,34Z"/><ellipse cx="45.684" cy="10.695" fill="#f7fafd" rx="1.642" ry="2.286" transform="rotate(-45.02 45.684 10.695)"/><ellipse cx="59.684" cy="10.695" fill="#f7fafd" rx="1.642" ry="2.286" transform="rotate(-45.02 59.683 10.694)"/><ellipse cx="41.682" cy="7.708" fill="#f7fafd" rx=".825" ry="1.148" transform="rotate(-45.02 41.681 7.708)"/><ellipse cx="34.682" cy="20.708" fill="#f7fafd" rx=".825" ry="1.148" transform="rotate(-45.02 34.681 20.707)"/><ellipse cx="10.427" cy="15.208" fill="#f7fafd" rx=".413" ry=".574" transform="rotate(-45.02 10.427 15.208)"/></g></svg>