<svg xmlns="http://www.w3.org/2000/svg"  viewBox="0 0 50 50" width="100px" height="100px" baseProfile="basic"><path fill="#16d6fa" d="M25,48C12.317,48,2,37.682,2,25S12.317,2,25,2c5.437,0,10.718,1.943,14.872,5.47l1.712,1.454 l-8.768,8.183l-1.336-0.978C29.579,14.736,27.338,14,25,14c-6.065,0-11,4.935-11,11s4.935,11,11,11c3.351,0,6.436-1.504,8.489-4 H25V20h22.496l0.245,1.717C47.918,22.949,48,23.992,48,25C48,37.682,37.683,48,25,48z M25,6C14.523,6,6,14.523,6,25 s8.523,19,19,19s19-8.523,19-19c0-0.323-0.011-0.654-0.033-1H29v4h11.001l-1.155,2.77C36.508,36.377,31.072,40,25,40 c-8.271,0-15-6.729-15-15s6.729-15,15-15c2.634,0,5.176,0.683,7.44,1.987l3.03-2.829C32.376,7.109,28.731,6,25,6z"/><path fill="#2dea55" d="M29.965,43.319C28.379,43.75,26.72,44,25,44C14.523,44,6,35.477,6,25S14.523,6,25,6 c3.731,0,7.376,1.109,10.471,3.158l-3.03,2.829C30.176,10.683,27.634,10,25,10c-8.271,0-15,6.729-15,15s6.729,15,15,15 c1.289,0,2.547-0.173,3.755-0.484L27.541,35.7C26.72,35.894,25.87,36,25,36c-6.065,0-11-4.935-11-11s4.935-11,11-11 c2.338,0,4.579,0.736,6.48,2.129l1.336,0.978l8.768-8.183L39.872,7.47C35.718,3.943,30.437,2,25,2C12.317,2,2,12.318,2,25 s10.317,23,23,23c2.142,0,4.215-0.301,6.184-0.851L29.965,43.319z"/><path fill="#ffd217" d="M7.607,32.62C6.58,30.285,6,27.71,6,25C6,14.523,14.523,6,25,6c3.731,0,7.376,1.109,10.471,3.158 l-3.03,2.829C30.176,10.683,27.634,10,25,10c-8.271,0-15,6.729-15,15c0,2.001,0.401,3.908,1.115,5.655l3.531-1.977 C14.235,27.526,14,26.291,14,25c0-6.065,4.935-11,11-11c2.338,0,4.579,0.736,6.48,2.129l1.336,0.978l8.768-8.183L39.872,7.47 C35.718,3.943,30.437,2,25,2C12.317,2,2,12.318,2,25c0,3.42,0.756,6.664,2.1,9.584L7.607,32.62z"/><path fill="#ff64bd" d="M9.018,14.764C12.401,9.502,18.294,6,25,6c3.731,0,7.376,1.109,10.471,3.158l-3.03,2.829 C30.176,10.683,27.634,10,25,10c-5.401,0-10.129,2.878-12.771,7.172l3.211,2.408C17.334,16.253,20.906,14,25,14 c2.338,0,4.579,0.736,6.48,2.129l1.336,0.978l8.768-8.183L39.872,7.47C35.718,3.943,30.437,2,25,2 C16.987,2,9.922,6.121,5.803,12.352L9.018,14.764z"/><path fill="none" d="M10,25c0-2.152,0.464-4.195,1.284-6.047L8,16.565C6.732,19.11,6,21.968,6,25 c0,1.974,0.304,3.879,0.865,5.67l3.633-1.903C10.184,27.561,10,26.303,10,25z"/><path fill="none" d="M25,40c-5.544,0-10.383-3.031-12.98-7.515l-3.546,1.857C11.743,40.1,17.92,44,25,44 c0.998,0,1.971-0.101,2.929-0.25l-1.196-3.86C26.161,39.956,25.585,40,25,40z"/><path fill="none" d="M44,25c0-0.323-0.011-0.654-0.033-1H29v4h11.001l-1.155,2.77c-1.58,3.79-4.579,6.669-8.23,8.139 l1.182,3.812C38.922,39.979,44,33.079,44,25z"/><path fill="none" d="M25,10c2.634,0,5.176,0.683,7.44,1.987l3.03-2.829C32.376,7.109,28.731,6,25,6 c-6.009,0-11.366,2.812-14.85,7.181l3.23,2.349C16.133,12.159,20.318,10,25,10z"/><path fill="none" d="M14.167,26.845l4.632-2.427l-4.176-3.037C14.227,22.517,14,23.731,14,25 C14,25.63,14.065,26.244,14.167,26.845z"/><path fill="#d8007c" d="M11.284,18.953l3.34,2.429c0.451-1.29,1.131-2.472,1.999-3.493L13.38,15.53 C12.535,16.565,11.831,17.716,11.284,18.953z"/><path fill="#d8007c" d="M10.15,13.181l-3.241-2.357c-0.824,1.049-1.56,2.168-2.194,3.351L8,16.565 C8.601,15.36,9.318,14.224,10.15,13.181z"/><path fill="#f68235" d="M10.498,28.767c0.343,1.318,0.855,2.566,1.522,3.718l3.546-1.857 c-0.685-1.144-1.167-2.419-1.399-3.782L10.498,28.767z"/><path fill="#f68235" d="M6.865,30.67l-3.586,1.879c0.443,1.272,0.994,2.494,1.644,3.654l3.552-1.86 C7.818,33.186,7.27,31.961,6.865,30.67z"/><path fill="#00a4ff" d="M30.616,38.909l-1.193-3.847c-1.214,0.533-2.533,0.845-3.906,0.909l1.215,3.919 C28.082,39.735,29.386,39.405,30.616,38.909z"/><path fill="#00a4ff" d="M27.929,43.75l1.2,3.871c1.329-0.242,2.621-0.594,3.861-1.055l-1.192-3.845 C30.564,43.196,29.27,43.541,27.929,43.75z"/></svg>