<svg xmlns="http://www.w3.org/2000/svg"  viewBox="0 0 64 64" width="64px" height="64px"><ellipse cx="32" cy="61" opacity=".3" rx="19" ry="3"/><path fill="#37d0ee" d="M18.619,6.492c1.384-1.722,3.902-1.995,5.624-0.611l22.383,17.994 c2.035,1.635,2.849,4.471,1.748,7.079c-0.37,0.877-0.985,1.631-1.712,2.245l-22.369,18.86c-1.689,1.424-4.212,1.209-5.636-0.48 l-2.578-3.058c-1.424-1.689-1.209-4.213,0.48-5.637l16.871-14.224L16.724,15.233c-1.722-1.384-1.995-3.902-0.611-5.624 L18.619,6.492z"/><path fill="#fff" d="M16.724,15.233l3.897,3.133c1.516-1.885,1.442-4.534-0.048-6.325l1.315-1.637l6.979,5.61 c2.151,1.731,5.299,1.389,7.03-0.764c0,0,0,0,0,0l-11.655-9.37c-1.722-1.384-4.239-1.111-5.624,0.611l-2.506,3.117 C14.729,11.331,15.002,13.849,16.724,15.233z" opacity=".3"/><path d="M34.822,43.18c-1.781-2.113-4.935-2.378-7.046-0.599l-6.021,5.076c-1.79-1.419-4.368-1.447-6.211,0.021 c0.143,0.295,0.31,0.582,0.532,0.844l2.578,3.058c1.424,1.689,3.948,1.904,5.636,0.479L34.822,43.18z" opacity=".15"/><path fill="#fff" d="M27.499,15c-0.329,0-0.66-0.107-0.936-0.329l-5-4c-0.647-0.518-0.752-1.461-0.234-2.108 c0.519-0.646,1.462-0.751,2.108-0.233l5,4c0.647,0.518,0.752,1.461,0.234,2.108C28.375,14.808,27.939,15,27.499,15z"/></svg>