<svg xmlns="http://www.w3.org/2000/svg"  viewBox="0 0 100 100" width="100px" height="100px"><path fill="#c7ede6" d="M88.704,55.677c0.3-0.616,0.566-1.264,0.796-1.943c2.633-7.77-1.349-17.078-9.733-19.325 C78.86,23.026,70.86,15.216,61.826,13.884c-10.341-1.525-19.814,5.044-22.966,15.485c-3.799-1.346-7.501-1.182-10.99,0.857 c-1.583,0.732-3.031,1.812-4.33,3.233c-1.907,2.086-3.147,4.719-3.652,7.495c-0.748,0.118-1.483,0.236-2.176,0.484 c-4.04,1.449-6.589,4.431-7.288,8.923c-0.435,2.797,0.443,5.587,0.933,6.714c1.935,4.455,6.422,6.98,10.981,6.312 c0.227-0.033,0.557,0.069,0.752,0.233c0.241,7.12,3.698,13.417,8.884,17.014c8.321,5.772,19.027,3.994,25.781-3.921 c2.894,2.96,6.338,4.398,10.384,3.876c4.023-0.519,7.147-2.739,9.426-6.349c1.053,0.283,2.051,0.691,3.083,0.804 c4.042,0.442,7.324-1.165,9.732-4.8c0.922-1.391,1.793-3.194,1.793-6.354C92.174,60.634,90.88,57.667,88.704,55.677z"/><path fill="#fff" d="M82.405 45H72.5c-.276 0-.5-.224-.5-.5s.224-.5.5-.5h9.905c.276 0 .5.224.5.5S82.682 45 82.405 45zM85.5 45h-1c-.276 0-.5-.224-.5-.5s.224-.5.5-.5h1c.276 0 .5.224.5.5S85.777 45 85.5 45zM90.491 47H81.5c-.276 0-.5-.224-.5-.5s.224-.5.5-.5h8.991c.276 0 .5.224.5.5S90.767 47 90.491 47zM79.5 47h-1c-.276 0-.5-.224-.5-.5s.224-.5.5-.5h1c.276 0 .5.224.5.5S79.777 47 79.5 47zM76.5 47h-2c-.276 0-.5-.224-.5-.5s.224-.5.5-.5h2c.276 0 .5.224.5.5S76.777 47 76.5 47zM82.5 49h-2c-.276 0-.5-.224-.5-.5s.224-.5.5-.5h2c.276 0 .5.224.5.5S82.776 49 82.5 49zM85.5 40c-.177 0-.823 0-1 0-.276 0-.5.224-.5.5 0 .276.224.5.5.5.177 0 .823 0 1 0 .276 0 .5-.224.5-.5C86 40.224 85.776 40 85.5 40zM85.5 42c-.177 0-4.823 0-5 0-.276 0-.5.224-.5.5 0 .276.224.5.5.5.177 0 4.823 0 5 0 .276 0 .5-.224.5-.5C86 42.224 85.776 42 85.5 42zM90.5 44c-.177 0-2.823 0-3 0-.276 0-.5.224-.5.5 0 .276.224.5.5.5.177 0 2.823 0 3 0 .276 0 .5-.224.5-.5C91 44.224 90.776 44 90.5 44z"/><g><path fill="#fff" d="M31.5 74h-10c-.276 0-.5-.224-.5-.5s.224-.5.5-.5h10c.276 0 .5.224.5.5S31.776 74 31.5 74zM35.5 74h-2c-.276 0-.5-.224-.5-.5s.224-.5.5-.5h2c.276 0 .5.224.5.5S35.776 74 35.5 74zM40.5 76h-10c-.276 0-.5-.224-.5-.5s.224-.5.5-.5h10c.276 0 .5.224.5.5S40.777 76 40.5 76zM28.5 76h-1c-.276 0-.5-.224-.5-.5s.224-.5.5-.5h1c.276 0 .5.224.5.5S28.776 76 28.5 76zM25.375 76H23.5c-.276 0-.5-.224-.5-.5s.224-.5.5-.5h1.875c.276 0 .5.224.5.5S25.651 76 25.375 76zM34.5 72h-5c-.276 0-.5-.224-.5-.5s.224-.5.5-.5h5c.276 0 .5.224.5.5S34.777 72 34.5 72zM31.5 78h-2c-.276 0-.5-.224-.5-.5s.224-.5.5-.5h2c.276 0 .5.224.5.5S31.776 78 31.5 78z"/></g><g><path fill="#fddbbc" d="M52.926,69.705l15.584-7.859c1.732-0.799,2.797-3.064,2.131-4.928 c-0.533-1.598-1.998-2.531-3.596-2.531c-0.533,0-0.932,0.133-1.465,0.266l-12.787,5.195"/><path fill="#472b29" d="M52.928,70.405c-0.256,0-0.503-0.141-0.626-0.385c-0.174-0.346-0.035-0.767,0.31-0.94l15.584-7.859 c1.467-0.677,2.308-2.61,1.787-4.067c-0.42-1.261-1.571-2.066-2.938-2.066c-0.349,0-0.63,0.073-1.019,0.175l-0.277,0.071 l-12.692,5.163c-0.36,0.147-0.767-0.026-0.912-0.385s0.026-0.767,0.385-0.912l13.145-5.293c0.433-0.112,0.843-0.22,1.371-0.22 c1.979,0,3.652,1.182,4.261,3.011c0.768,2.147-0.376,4.803-2.502,5.784L53.242,70.33C53.141,70.381,53.033,70.405,52.928,70.405z"/></g><g><path fill="#fddbbc" d="M56.922,71.037l15.584-7.859c1.732-0.799,2.797-3.064,2.131-4.928 c-0.533-1.598-1.998-2.531-3.596-2.531c-0.533,0-0.932,0.133-1.465,0.266L56.789,61.18"/><path fill="#472b29" d="M56.923,71.737c-0.257,0-0.503-0.141-0.626-0.385c-0.174-0.346-0.035-0.767,0.31-0.94l15.585-7.859 c1.467-0.677,2.308-2.61,1.787-4.067c-0.421-1.261-1.572-2.066-2.938-2.066c-0.349,0-0.63,0.073-1.019,0.175l-0.277,0.071 l-12.692,5.163c-0.359,0.146-0.767-0.027-0.912-0.385c-0.146-0.358,0.026-0.767,0.385-0.912l13.145-5.293 c0.433-0.112,0.843-0.22,1.371-0.22c1.979,0,3.651,1.182,4.261,3.01c0.768,2.148-0.376,4.804-2.502,5.785l-15.563,7.849 C57.136,71.713,57.028,71.737,56.923,71.737z"/></g><g><path fill="#fddbbc" d="M28.818,52.789l7.193-2.664c1.332-0.533,2.664-0.666,3.996-0.666c1.865,0,3.73,0.4,5.328,1.332 l12.654,6.66c1.598,0.799,2.131,2.797,1.332,4.396l-0.266,0.533l1.598,1.066l13.053-5.328c0.4-0.133,0.799-0.266,1.199-0.266 c1.332,0,2.531,0.799,2.93,1.998c0.533,1.465-0.266,3.33-1.732,3.996l-15.584,7.859c-0.4,0.266-1.066,0.4-1.598,0.4 s-1.066-0.133-1.598-0.4l-20.113-9.324l-8.391,3.33"/><path fill="#472b29" d="M58.92,72.803c-0.639,0-1.281-0.159-1.91-0.474l-19.822-9.188l-8.112,3.219 c-0.355,0.146-0.766-0.032-0.908-0.393c-0.143-0.359,0.033-0.766,0.393-0.908l8.392-3.33c0.177-0.072,0.377-0.067,0.552,0.016 l20.113,9.324c0.452,0.225,0.884,0.334,1.304,0.334c0.456,0,0.965-0.118,1.211-0.282l15.656-7.901 c1.147-0.522,1.798-2.009,1.389-3.132c-0.304-0.912-1.235-1.536-2.271-1.536c-0.287,0-0.623,0.111-0.979,0.229l-13.009,5.313 c-0.214,0.086-0.458,0.063-0.653-0.066l-1.599-1.065c-0.293-0.195-0.396-0.579-0.237-0.896l0.267-0.533 c0.649-1.299,0.192-2.85-1.02-3.456L45.008,51.41c-1.413-0.823-3.134-1.251-5.002-1.251c-1.519,0-2.671,0.189-3.735,0.615 l-7.21,2.671c-0.361,0.136-0.766-0.05-0.899-0.413c-0.135-0.362,0.051-0.766,0.413-0.899l7.193-2.664 c1.221-0.489,2.532-0.71,4.238-0.71c2.116,0,4.08,0.494,5.681,1.428l12.628,6.645c1.883,0.942,2.622,3.322,1.642,5.308l0.775,0.518 l12.709-5.188c0.469-0.157,0.95-0.317,1.464-0.317c1.656,0,3.101,0.995,3.594,2.476c0.657,1.806-0.305,4.037-2.105,4.855 l-15.559,7.847C60.334,72.667,59.505,72.803,58.92,72.803z"/></g><g><path fill="#fddbbc" d="M47.925,59.893c-0.728-0.367-1.843-0.921-1.843-0.921"/><path fill="#472b29" d="M47.926,60.393c-0.076,0-0.152-0.017-0.225-0.054l-1.842-0.92l0.445-0.895l1.846,0.922 c0.247,0.124,0.346,0.424,0.222,0.671C48.285,60.292,48.108,60.393,47.926,60.393z"/></g><g><path fill="#fddbbc" d="M59.022,62.12c-0.653,1.152-2.289,2.043-4.607,0.921c-0.996-0.482-3.048-1.509-4.735-2.357"/><path fill="#472b29" d="M56.45,64.057c-0.678,0-1.436-0.17-2.254-0.565c-0.997-0.482-3.052-1.511-4.741-2.36 c-0.247-0.124-0.346-0.424-0.222-0.671c0.122-0.248,0.424-0.349,0.671-0.222c1.684,0.846,3.732,1.872,4.728,2.353 c2.055,0.996,3.415,0.234,3.955-0.717c0.136-0.243,0.442-0.329,0.681-0.188c0.24,0.136,0.325,0.44,0.188,0.681 C58.909,63.332,57.85,64.057,56.45,64.057z"/></g><g><path fill="#fdfcef" d="M36.126,44.487c1.71,0,3.194,0,3.215,0c1.916,0,3.469-1.52,3.469-3.396 c0-1.636-1.182-3.001-2.756-3.323c0.018-0.143,0.031-0.288,0.031-0.436c0-1.942-1.609-3.517-3.593-3.517 c-1.172,0-2.209,0.551-2.865,1.401c-0.168-2.162-2.141-3.83-4.45-3.554c-1.688,0.202-3.084,1.479-3.395,3.116 c-0.1,0.525-0.089,1.034,0.01,1.512c-0.453-0.477-1.097-0.777-1.814-0.777c-1.313,0-2.385,1.001-2.47,2.265 c-0.596-0.129-1.245-0.121-1.928,0.13c-1.306,0.48-2.236,1.683-2.29,3.047c-0.077,1.937,1.504,3.532,3.467,3.532 c0.149,0,0.673,0,0.794,0h7.204 M30.245,44.487h0.327"/><path fill="#472b29" d="M39.341,44.987h-3.215c-0.276,0-0.5-0.224-0.5-0.5s0.224-0.5,0.5-0.5h3.215 c1.637,0,2.969-1.299,2.969-2.896c0-1.363-0.991-2.554-2.356-2.833c-0.256-0.052-0.429-0.293-0.396-0.552 c0.016-0.123,0.027-0.247,0.027-0.374c0-1.664-1.388-3.017-3.093-3.017c-0.977,0-1.877,0.44-2.47,1.207 c-0.126,0.164-0.341,0.233-0.539,0.173c-0.198-0.059-0.339-0.234-0.355-0.44c-0.071-0.913-0.507-1.741-1.227-2.332 c-0.742-0.609-1.687-0.883-2.665-0.764c-1.475,0.177-2.694,1.292-2.963,2.712c-0.084,0.443-0.081,0.887,0.008,1.317 c0.046,0.219-0.06,0.441-0.257,0.545c-0.198,0.104-0.44,0.063-0.595-0.099c-0.38-0.401-0.896-0.622-1.452-0.622 c-1.038,0-1.903,0.79-1.971,1.799c-0.01,0.145-0.082,0.278-0.198,0.366s-0.265,0.119-0.406,0.089 c-0.573-0.125-1.111-0.087-1.65,0.111c-1.129,0.415-1.917,1.459-1.963,2.598c-0.031,0.782,0.252,1.526,0.799,2.096 c0.568,0.591,1.337,0.916,2.167,0.916h7.998c0.276,0,0.5,0.224,0.5,0.5s-0.224,0.5-0.5,0.5h-7.998 c-1.089,0-2.142-0.446-2.888-1.224c-0.737-0.767-1.12-1.771-1.078-2.828c0.061-1.538,1.113-2.943,2.617-3.496 c0.548-0.201,1.115-0.276,1.688-0.228c0.332-1.268,1.507-2.198,2.882-2.198c0.431,0,0.854,0.094,1.24,0.269 c0.011-0.199,0.035-0.397,0.073-0.597c0.35-1.844,1.924-3.291,3.827-3.519c1.249-0.149,2.462,0.2,3.418,0.984 c0.668,0.548,1.147,1.254,1.399,2.047c0.717-0.568,1.61-0.882,2.557-0.882c2.257,0,4.093,1.802,4.093,4.017 c0,0.02,0,0.04,0,0.06c1.603,0.52,2.726,2.011,2.726,3.7C43.31,43.239,41.53,44.987,39.341,44.987z M30.571,44.987h-0.327 c-0.276,0-0.5-0.224-0.5-0.5s0.224-0.5,0.5-0.5h0.327c0.276,0,0.5,0.224,0.5,0.5S30.847,44.987,30.571,44.987z"/><g><path fill="#472b29" d="M37.79,39.695c-0.018,0-0.036-0.002-0.055-0.006c-0.135-0.03-0.219-0.164-0.189-0.299 c0.035-0.153,0.087-0.301,0.157-0.441c0.555-1.123,2.084-1.537,3.409-0.924c0.125,0.058,0.18,0.207,0.122,0.332 s-0.206,0.179-0.332,0.122c-1.081-0.501-2.315-0.19-2.751,0.692c-0.052,0.104-0.091,0.214-0.116,0.328 C38.008,39.615,37.905,39.695,37.79,39.695z"/></g><g><path fill="#472b29" d="M33.106,44.987h-1.005c-0.276,0-0.5-0.224-0.5-0.5s0.224-0.5,0.5-0.5h1.005 c0.276,0,0.5,0.224,0.5,0.5S33.382,44.987,33.106,44.987z"/></g></g><g><path fill="#fbcd59" d="M65.836 27.128A6.634 6.634 0 1 0 65.836 40.396A6.634 6.634 0 1 0 65.836 27.128Z"/><path fill="#472b29" d="M65.836,40.927c-3.951,0-7.165-3.213-7.165-7.164s3.214-7.165,7.165-7.165S73,29.812,73,33.763 S69.787,40.927,65.836,40.927z M65.836,27.659c-3.365,0-6.103,2.737-6.103,6.103c0,3.364,2.737,6.102,6.103,6.102 c3.364,0,6.102-2.737,6.102-6.102C71.937,30.397,69.2,27.659,65.836,27.659z"/><path fill="#f1bc19" d="M65.836 29.424A4.338 4.338 0 1 0 65.836 38.1A4.338 4.338 0 1 0 65.836 29.424Z"/><path fill="#472b29" d="M65.836,38.364c-2.539,0-4.603-2.065-4.603-4.602c0-2.539,2.065-4.603,4.603-4.603 c2.539,0,4.603,2.065,4.603,4.603C70.439,36.299,68.374,38.364,65.836,38.364z M65.836,29.69c-2.245,0-4.072,1.827-4.072,4.072 c0,2.244,1.827,4.071,4.072,4.071c2.245,0,4.072-1.827,4.072-4.071C69.908,31.517,68.081,29.69,65.836,29.69z"/><path fill="#fbcd59" d="M55.165 34.753A6.634 6.634 0 1 0 55.165 48.021A6.634 6.634 0 1 0 55.165 34.753Z"/><path fill="#472b29" d="M55.165,49C51.214,49,48,45.685,48,41.611s3.214-7.388,7.165-7.388s7.165,3.314,7.165,7.388 C62.33,45.685,59.116,49,55.165,49z M55.165,35.286c-3.365,0-6.103,2.737-6.103,6.102c0,3.365,2.737,6.103,6.103,6.103 s6.103-2.737,6.103-6.103C61.268,38.023,58.53,35.286,55.165,35.286z"/><g><path fill="#f1bc19" d="M55.165 37.05A4.338 4.338 0 1 0 55.165 45.726A4.338 4.338 0 1 0 55.165 37.05Z"/><path fill="#472b29" d="M55.165,45.99c-2.539,0-4.603-2.065-4.603-4.603c0-2.539,2.065-4.603,4.603-4.603 s4.603,2.065,4.603,4.603C59.768,43.926,57.704,45.99,55.165,45.99z M55.165,37.315c-2.245,0-4.072,1.827-4.072,4.072 c0,2.245,1.827,4.072,4.072,4.072s4.072-1.827,4.072-4.072C59.237,39.142,57.41,37.315,55.165,37.315z"/></g><g><path fill="#472b29" d="M54.6,42.547c0.006,0,0.018,0.006,0.036,0.018l-0.01-0.004c0.087,0.06,0.165,0.107,0.234,0.141 c0.069,0.034,0.142,0.058,0.22,0.073v-1.396l-0.081-0.045c-0.099-0.054-0.193-0.111-0.283-0.171 c-0.09-0.06-0.171-0.125-0.242-0.198c-0.072-0.071-0.133-0.148-0.182-0.228s-0.083-0.169-0.101-0.265 c-0.012-0.048-0.019-0.092-0.02-0.135c-0.001-0.043-0.002-0.087-0.002-0.135c0-0.14,0.023-0.264,0.069-0.368 c0.047-0.105,0.111-0.194,0.191-0.267c0.081-0.073,0.176-0.132,0.287-0.175s0.232-0.072,0.363-0.087V39.18 c0-0.06,0.014-0.111,0.04-0.153c0.027-0.043,0.077-0.063,0.148-0.063h0.018c0.155,0,0.241,0.077,0.256,0.228l-0.004,0.121 c0.084,0.015,0.17,0.038,0.258,0.07c0.088,0.032,0.188,0.071,0.299,0.119l-0.013-0.008c0.051,0.018,0.09,0.04,0.119,0.067 c0.029,0.027,0.046,0.07,0.052,0.13v0.027c0,0.021-0.005,0.048-0.016,0.081c-0.011,0.033-0.027,0.065-0.047,0.095 c-0.021,0.03-0.045,0.056-0.072,0.079c-0.027,0.022-0.057,0.034-0.09,0.034c-0.027,0-0.052-0.002-0.074-0.007 c-0.022-0.004-0.049-0.017-0.079-0.038v0.004l-0.049-0.027c-0.087-0.045-0.183-0.081-0.287-0.107v1.226l0.018,0.01 c0.242,0.123,0.429,0.259,0.561,0.409s0.219,0.305,0.26,0.468c0.018,0.069,0.031,0.132,0.038,0.188 c0.007,0.057,0.012,0.115,0.012,0.175c0,0.138-0.022,0.262-0.068,0.373c-0.045,0.111-0.106,0.207-0.184,0.29 c-0.078,0.082-0.171,0.15-0.281,0.202c-0.109,0.053-0.228,0.088-0.357,0.105V43.6c0,0.06-0.012,0.111-0.036,0.153 c-0.023,0.041-0.073,0.063-0.148,0.063h-0.027c-0.075,0-0.135-0.02-0.18-0.061c-0.045-0.04-0.068-0.1-0.068-0.177v-0.301 c-0.162-0.018-0.301-0.054-0.418-0.107c-0.117-0.054-0.237-0.121-0.359-0.202c-0.033-0.027-0.055-0.052-0.068-0.077 c-0.012-0.023-0.026-0.056-0.04-0.099v-0.027c0-0.027,0.008-0.057,0.024-0.091c0.016-0.035,0.036-0.068,0.061-0.099 c0.024-0.032,0.049-0.058,0.077-0.081c0.027-0.022,0.052-0.034,0.077-0.034c0.033,0,0.062,0.01,0.088,0.03 c0.026,0.019,0.05,0.039,0.073,0.061H54.6c0.006,0.003,0.011,0.004,0.013,0.004L54.6,42.547z M54.83,40.638 c0.07,0.066,0.153,0.124,0.25,0.175v-0.984c-0.114,0.024-0.208,0.07-0.285,0.139s-0.115,0.162-0.115,0.278 c0,0.018,0.001,0.037,0.002,0.058c0.001,0.021,0.005,0.047,0.012,0.077C54.715,40.486,54.76,40.572,54.83,40.638z M55.754,41.821 c-0.06-0.073-0.132-0.137-0.216-0.191v1.119c0.104-0.043,0.192-0.106,0.262-0.193s0.105-0.188,0.105-0.305 c0-0.033-0.003-0.063-0.009-0.09c-0.006-0.027-0.012-0.055-0.018-0.085C55.856,41.979,55.813,41.894,55.754,41.821z"/></g><g><path fill="#472b29" d="M65.138,34.921c0.006,0,0.018,0.006,0.036,0.018l-0.01-0.004c0.087,0.06,0.165,0.107,0.234,0.141 c0.069,0.034,0.142,0.058,0.22,0.073v-1.396l-0.081-0.045c-0.099-0.054-0.193-0.111-0.283-0.171 c-0.09-0.06-0.171-0.125-0.242-0.198c-0.072-0.071-0.133-0.148-0.182-0.228c-0.049-0.081-0.083-0.169-0.101-0.265 c-0.012-0.048-0.019-0.092-0.02-0.135c-0.001-0.043-0.002-0.087-0.002-0.135c0-0.14,0.023-0.264,0.069-0.368 c0.047-0.105,0.111-0.194,0.191-0.267c0.081-0.073,0.176-0.132,0.287-0.175c0.111-0.044,0.232-0.072,0.363-0.087v-0.125 c0-0.06,0.014-0.111,0.04-0.153s0.077-0.063,0.148-0.063h0.018c0.155,0,0.241,0.077,0.256,0.228l-0.004,0.121 c0.084,0.015,0.17,0.038,0.258,0.07c0.088,0.032,0.188,0.071,0.299,0.119l-0.013-0.008c0.051,0.018,0.09,0.04,0.119,0.067 c0.029,0.027,0.046,0.07,0.052,0.13v0.027c0,0.021-0.005,0.048-0.016,0.081c-0.011,0.033-0.027,0.065-0.047,0.095 c-0.021,0.03-0.045,0.056-0.072,0.079c-0.027,0.022-0.057,0.034-0.09,0.034c-0.027,0-0.052-0.002-0.074-0.007 c-0.022-0.004-0.049-0.017-0.079-0.038v0.004l-0.049-0.027c-0.087-0.045-0.183-0.081-0.287-0.107v1.226l0.018,0.01 c0.242,0.123,0.429,0.259,0.561,0.409c0.132,0.15,0.219,0.305,0.26,0.468c0.018,0.069,0.031,0.132,0.038,0.188 c0.007,0.057,0.012,0.115,0.012,0.175c0,0.138-0.022,0.262-0.068,0.373c-0.045,0.111-0.106,0.207-0.184,0.29 c-0.078,0.082-0.171,0.15-0.281,0.202c-0.109,0.053-0.228,0.088-0.357,0.105v0.323c0,0.06-0.012,0.111-0.036,0.153 c-0.023,0.041-0.073,0.063-0.148,0.063h-0.027c-0.075,0-0.135-0.02-0.18-0.061c-0.045-0.04-0.068-0.1-0.068-0.177v-0.301 c-0.162-0.018-0.301-0.054-0.418-0.107c-0.117-0.054-0.237-0.121-0.359-0.202c-0.033-0.027-0.055-0.052-0.068-0.077 c-0.012-0.023-0.026-0.056-0.04-0.099v-0.031c0-0.027,0.009-0.057,0.024-0.091c0.016-0.035,0.036-0.068,0.061-0.099 c0.024-0.032,0.049-0.058,0.077-0.081c0.027-0.022,0.052-0.034,0.077-0.034c0.033,0,0.062,0.01,0.088,0.03 c0.026,0.019,0.05,0.039,0.073,0.061H65.138c0.006,0.003,0.011,0.004,0.013,0.004L65.138,34.921z M65.368,33.012 c0.07,0.066,0.153,0.124,0.25,0.175v-0.984c-0.114,0.024-0.208,0.07-0.285,0.139c-0.077,0.069-0.115,0.162-0.115,0.278 c0,0.018,0.001,0.037,0.002,0.058c0.001,0.021,0.005,0.047,0.012,0.077C65.253,32.861,65.298,32.946,65.368,33.012z M66.292,34.196c-0.06-0.073-0.132-0.137-0.216-0.191v1.119c0.104-0.043,0.192-0.106,0.262-0.193 c0.07-0.087,0.105-0.188,0.105-0.305c0-0.033-0.003-0.063-0.009-0.09c-0.006-0.027-0.012-0.055-0.018-0.085 C66.394,34.354,66.351,34.269,66.292,34.196z"/></g></g></svg>