<svg xmlns="http://www.w3.org/2000/svg"  viewBox="0 0 100 100" width="50px" height="50px"><path fill="#ee3e54" d="M12.875,27.958c-1.105,0-2,0.895-2,2s0.895,2,2,2s2-0.895,2-2S13.98,27.958,12.875,27.958z"/><path fill="#f1bc19" d="M76.875,12.958c-0.551,0-1,0.449-1,1s0.449,1,1,1s1-0.449,1-1S77.426,12.958,76.875,12.958z"/><path fill="#fce0a2" d="M49.875,13.958c-20.434,0-37,16.566-37,37s16.566,37,37,37s37-16.566,37-37 S70.309,13.958,49.875,13.958z"/><path fill="#f1bc19" d="M82.875,11.958c-2.211,0-4,1.789-4,4s1.789,4,4,4s4-1.789,4-4S85.086,11.958,82.875,11.958z"/><path fill="#ee3e54" d="M86.875,22.958c-1.105,0-2,0.895-2,2s0.895,2,2,2s2-0.895,2-2S87.98,22.958,86.875,22.958z"/><path fill="#fbcd59" d="M80.875,74.958c-1.105,0-2,0.895-2,2s0.895,2,2,2s2-0.895,2-2S81.98,74.958,80.875,74.958z M14.875,59.958c-2.211,0-4,1.789-4,4c0,2.211,1.789,4,4,4s4-1.789,4-4C18.875,61.747,17.086,59.958,14.875,59.958z"/><path fill="#ee3e54" d="M24.875,85.958c-1.105,0-2,0.895-2,2s0.895,2,2,2s2-0.895,2-2S25.98,85.958,24.875,85.958z"/><path fill="#fff" d="M20.375,37.958c-1.379,0-2.5,1.121-2.5,2.5s1.121,2.5,2.5,2.5s2.5-1.121,2.5-2.5 S21.754,37.958,20.375,37.958z"/><path fill="#f1bc19" d="M20.875,65.958c-0.551,0-1,0.449-1,1s0.449,1,1,1s1-0.449,1-1S21.426,65.958,20.875,65.958z"/><path fill="#fff" d="M79.875,32.958c-0.551,0-1,0.449-1,1s0.449,1,1,1s1-0.449,1-1S80.426,32.958,79.875,32.958z"/><g><path fill="#88ae45" d="M30.125,70.3c-1.337,0-2.425-1.088-2.425-2.425v-18.75c0-1.337,1.088-2.425,2.425-2.425h39.75 c1.337,0,2.425,1.088,2.425,2.425v18.75c0,1.337-1.088,2.425-2.425,2.425H30.125z"/><path fill="#472b29" d="M69.875,47.4c0.951,0,1.725,0.774,1.725,1.725v18.75c0,0.951-0.774,1.725-1.725,1.725h-39.75 c-0.951,0-1.725-0.774-1.725-1.725v-18.75c0-0.951,0.774-1.725,1.725-1.725H69.875 M69.875,46h-39.75 C28.399,46,27,47.399,27,49.125v18.75C27,69.601,28.399,71,30.125,71h39.75C71.601,71,73,69.601,73,67.875v-18.75 C73,47.399,71.601,46,69.875,46L69.875,46z"/><path fill="#88ae45" d="M30.125,66.3c-1.337,0-2.425-1.088-2.425-2.425v-18.75c0-1.337,1.088-2.425,2.425-2.425h39.75 c1.337,0,2.425,1.088,2.425,2.425v18.75c0,1.337-1.088,2.425-2.425,2.425H30.125z"/><path fill="#472b29" d="M69.875,43.4c0.951,0,1.725,0.774,1.725,1.725v18.75c0,0.951-0.774,1.725-1.725,1.725h-39.75 c-0.951,0-1.725-0.774-1.725-1.725v-18.75c0-0.951,0.774-1.725,1.725-1.725H69.875 M69.875,42h-39.75 C28.399,42,27,43.399,27,45.125v18.75C27,65.601,28.399,67,30.125,67h39.75C71.601,67,73,65.601,73,63.875v-18.75 C73,43.399,71.601,42,69.875,42L69.875,42z"/><path fill="#c0d078" d="M30.125,62.3c-1.337,0-2.425-1.088-2.425-2.425v-18.75c0-1.337,1.088-2.425,2.425-2.425h39.75 c1.337,0,2.425,1.088,2.425,2.425v18.75c0,1.337-1.088,2.425-2.425,2.425H30.125z"/><path fill="#472b29" d="M69.875,39.4c0.951,0,1.725,0.774,1.725,1.725v18.75c0,0.951-0.774,1.725-1.725,1.725h-39.75 c-0.951,0-1.725-0.774-1.725-1.725v-18.75c0-0.951,0.774-1.725,1.725-1.725H69.875 M69.875,38h-39.75 C28.399,38,27,39.399,27,41.125v18.75C27,61.601,28.399,63,30.125,63h39.75C71.601,63,73,61.601,73,59.875v-18.75 C73,39.399,71.601,38,69.875,38L69.875,38z"/><path fill="#88ae45" d="M30.125,58.3c-1.337,0-2.425-1.088-2.425-2.425v-18.75c0-1.337,1.088-2.425,2.425-2.425h39.75 c1.337,0,2.425,1.088,2.425,2.425v18.75c0,1.337-1.088,2.425-2.425,2.425H30.125z"/><path fill="#472b29" d="M69.875,35.4c0.951,0,1.725,0.774,1.725,1.725v18.75c0,0.951-0.774,1.725-1.725,1.725h-39.75 c-0.951,0-1.725-0.774-1.725-1.725v-18.75c0-0.951,0.774-1.725,1.725-1.725H69.875 M69.875,34h-39.75 C28.399,34,27,35.399,27,37.125v18.75C27,57.601,28.399,59,30.125,59h39.75C71.601,59,73,57.601,73,55.875v-18.75 C73,35.399,71.601,34,69.875,34L69.875,34z"/><path fill="#c0d078" d="M30.117,54.3c-1.333,0-2.417-1.084-2.417-2.417V33.242c0-1.333,1.084-2.417,2.417-2.417h39.766 c1.333,0,2.417,1.084,2.417,2.417v18.641c0,1.333-1.084,2.417-2.417,2.417H30.117z"/><path fill="#472b29" d="M69.883,31.525c0.947,0,1.717,0.771,1.717,1.717v18.641c0,0.947-0.77,1.717-1.717,1.717H30.117 c-0.947,0-1.717-0.771-1.717-1.717V33.242c0-0.947,0.77-1.717,1.717-1.717H69.883 M69.883,30.125H30.117 c-1.722,0-3.117,1.396-3.117,3.117v18.641C27,53.604,28.396,55,30.117,55h39.766C71.604,55,73,53.604,73,51.883V33.242 C73,31.521,71.604,30.125,69.883,30.125L69.883,30.125z"/><path fill="#88ae45" d="M69,37.5c-1.933,0-3.5-1.567-3.5-3.5c0-0.171,0.027-0.335,0.05-0.5H34.45 c0.024,0.165,0.05,0.329,0.05,0.5c0,1.933-1.567,3.5-3.5,3.5c-0.171,0-0.335-0.027-0.5-0.05V47.55 c0.165-0.023,0.329-0.05,0.5-0.05c1.933,0,3.5,1.567,3.5,3.5c0,0.171-0.027,0.335-0.05,0.5H65.55 c-0.024-0.165-0.05-0.329-0.05-0.5c0-1.933,1.567-3.5,3.5-3.5c0.171,0,0.335,0.027,0.5,0.05V37.45 C69.335,37.473,69.171,37.5,69,37.5z"/><circle cx="50.5" cy="42.5" r="6" fill="#c0d078"/><circle cx="39" cy="42.125" r="2.5" fill="#c0d078"/><path fill="#472b29" d="M39,44.875c-1.517,0-2.75-1.234-2.75-2.75s1.233-2.75,2.75-2.75s2.75,1.234,2.75,2.75 S40.517,44.875,39,44.875z M39,39.875c-1.241,0-2.25,1.009-2.25,2.25s1.009,2.25,2.25,2.25s2.25-1.009,2.25-2.25 S40.241,39.875,39,39.875z"/><circle cx="62" cy="42.125" r="2.5" fill="#c0d078"/><path fill="#472b29" d="M62,44.875c-1.517,0-2.75-1.234-2.75-2.75s1.233-2.75,2.75-2.75s2.75,1.234,2.75,2.75 S63.517,44.875,62,44.875z M62,39.875c-1.24,0-2.25,1.009-2.25,2.25s1.01,2.25,2.25,2.25s2.25-1.009,2.25-2.25 S63.24,39.875,62,39.875z"/><g><path fill="#472b29" d="M57.625,34.125H45c-0.276,0-0.5-0.224-0.5-0.5s0.224-0.5,0.5-0.5h12.625c0.276,0,0.5,0.224,0.5,0.5 S57.901,34.125,57.625,34.125z"/></g><g><path fill="#472b29" d="M65.551,52.125H43.75c-0.276,0-0.5-0.224-0.5-0.5s0.224-0.5,0.5-0.5H65c0-2.206,1.794-4,4-4v-9 c-2.206,0-4-1.794-4-4h-3.875c-0.276,0-0.5-0.224-0.5-0.5s0.224-0.5,0.5-0.5h4.426c0.146,0,0.283,0.063,0.379,0.173 c0.095,0.11,0.137,0.256,0.115,0.4C66.021,33.862,66,33.991,66,34.125c0,1.654,1.346,3,3,3c0.127,0,0.25-0.019,0.372-0.037 c0.146-0.021,0.318,0.018,0.427,0.113C69.909,37.296,70,37.43,70,37.575v10.101c0,0.145-0.063,0.283-0.172,0.378 c-0.109,0.095-0.254,0.138-0.398,0.117c-0.18-0.026-0.303-0.045-0.43-0.045c-1.654,0-3,1.346-3,3c0,0.134,0.021,0.263,0.04,0.392 c0.021,0.144-0.018,0.307-0.113,0.417C65.832,52.045,65.696,52.125,65.551,52.125z"/></g><g><path fill="#472b29" d="M40.625,52.125H34.45c-0.145,0-0.283-0.063-0.377-0.172c-0.095-0.109-0.138-0.255-0.118-0.398 C33.98,51.376,34,51.253,34,51.125c0-1.654-1.346-3-3-3c-0.128,0-0.251,0.019-0.374,0.037c-0.145,0.021-0.317-0.018-0.426-0.113 c-0.11-0.095-0.2-0.229-0.2-0.374V37.575c0-0.145,0.063-0.283,0.172-0.378c0.109-0.095,0.256-0.138,0.398-0.117 c0.179,0.026,0.302,0.045,0.43,0.045c1.654,0,3-1.346,3-3c0-0.128-0.02-0.251-0.037-0.374c-0.021-0.144,0.018-0.317,0.113-0.426 c0.095-0.11,0.229-0.2,0.374-0.2h2.05c0.276,0,0.5,0.224,0.5,0.5s-0.224,0.5-0.5,0.5H35c0,2.206-1.794,4-4,4v9 c2.206,0,4,1.794,4,4h5.625c0.276,0,0.5,0.224,0.5,0.5S40.901,52.125,40.625,52.125z"/></g><g><path fill="#472b29" d="M44.583,43.875c-0.12,0-0.226-0.086-0.246-0.209c-0.057-0.341-0.086-0.692-0.086-1.042 c0-1.596,0.601-3.115,1.693-4.277c0.095-0.101,0.254-0.105,0.353-0.011c0.101,0.094,0.106,0.253,0.011,0.353 c-1.004,1.069-1.557,2.467-1.557,3.935c0,0.322,0.027,0.645,0.08,0.959c0.023,0.136-0.069,0.265-0.205,0.288 C44.61,43.874,44.597,43.875,44.583,43.875z"/></g><g><path fill="#472b29" d="M50.5,48.875c-2.498,0-4.751-1.482-5.741-3.776c-0.198-0.459-0.34-0.941-0.422-1.433 c-0.023-0.136,0.069-0.265,0.205-0.288c0.135-0.023,0.266,0.069,0.288,0.205c0.076,0.452,0.207,0.895,0.388,1.318 c0.911,2.11,2.984,3.474,5.282,3.474c1.359,0,2.679-0.483,3.714-1.36c0.104-0.089,0.263-0.076,0.352,0.029 c0.09,0.105,0.076,0.263-0.029,0.352C53.411,48.35,51.978,48.875,50.5,48.875z"/></g><g><path fill="#472b29" d="M55.768,45.75c-0.041,0-0.082-0.01-0.12-0.031c-0.121-0.066-0.165-0.218-0.1-0.339 c0.46-0.84,0.702-1.792,0.702-2.755c0-3.171-2.579-5.75-5.75-5.75c-0.791,0-1.557,0.157-2.276,0.468 c-0.125,0.055-0.274-0.003-0.329-0.13c-0.055-0.127,0.003-0.274,0.13-0.329c0.782-0.338,1.615-0.509,2.474-0.509 c3.446,0,6.25,2.804,6.25,6.25c0,1.046-0.264,2.082-0.763,2.995C55.941,45.703,55.855,45.75,55.768,45.75z"/></g></g></svg>