<svg xmlns="http://www.w3.org/2000/svg"  viewBox="0 0 100 100" width="50px" height="50px"><circle cx="77" cy="13" r="1" fill="#f1bc19"/><circle cx="50" cy="50" r="37" fill="#e4e4f9"/><circle cx="83" cy="15" r="4" fill="#f1bc19"/><circle cx="87" cy="24" r="2" fill="#8889b9"/><circle cx="81" cy="76" r="2" fill="#fbcd59"/><circle cx="15" cy="63" r="4" fill="#fbcd59"/><circle cx="25" cy="87" r="2" fill="#8889b9"/><circle cx="79.5" cy="33.5" r="1.5" fill="#fff"/><path fill="#f6cca4" d="M22.5,54.3c-0.993,0-1.8-0.808-1.8-1.8v-9c0-0.644,0.34-1.225,0.91-1.552l0.054-0.031l6.624-5.564 c0.324-0.272,0.734-0.422,1.156-0.422c0.534,0,1.037,0.234,1.379,0.642c0.31,0.368,0.457,0.834,0.415,1.314 c-0.042,0.479-0.267,0.913-0.635,1.222L24.3,44.404V52.5C24.3,53.492,23.493,54.3,22.5,54.3z"/><path fill="#472b29" d="M29.444,36.631c0.327,0,0.634,0.143,0.844,0.393c0.39,0.464,0.33,1.16-0.135,1.55L24.1,43.658 l-0.5,0.42v0.652v7.77c0,0.607-0.493,1.1-1.1,1.1c-0.607,0-1.1-0.493-1.1-1.1v-9c0-0.391,0.209-0.744,0.559-0.946l0.107-0.062 l0.095-0.08l6.577-5.524C28.992,36.675,29.262,36.631,29.444,36.631 M29.444,35.231c-0.568,0-1.138,0.192-1.607,0.586 l-6.577,5.524C20.511,41.772,20,42.572,20,43.5v9c0,1.381,1.119,2.5,2.5,2.5c1.381,0,2.5-1.119,2.5-2.5v-7.77l6.054-5.085 c1.057-0.888,1.194-2.465,0.306-3.522C30.865,35.534,30.157,35.231,29.444,35.231L29.444,35.231z"/><path fill="#f6cca4" d="M55.842,66.52c-0.543,0-1.066-0.202-1.475-0.57l-8.642-7.784l-10.644-4.161 c-1.159-0.452-1.739-1.787-1.293-2.976c0.331-0.882,1.17-1.474,2.09-1.474c0.271,0,0.539,0.051,0.795,0.151l10.977,4.291 c0.212,0.082,0.417,0.21,0.628,0.391l0.138,0.101c0.03,0.02,0.061,0.038,0.088,0.063l8.814,7.94 c0.934,0.841,1.022,2.302,0.198,3.257C57.091,66.238,56.481,66.52,55.842,66.52L55.842,66.52z"/><path fill="#472b29" d="M35.877,50.254c0.184,0,0.365,0.035,0.54,0.103l10.977,4.29c0.137,0.054,0.277,0.142,0.428,0.271 l0.04,0.034l0.043,0.031c0.04,0.029,0.08,0.057,0.121,0.084l0.01,0.003l8.813,7.939c0.653,0.588,0.715,1.611,0.137,2.279 c-0.296,0.342-0.702,0.531-1.145,0.531c-0.369,0-0.726-0.139-1.006-0.391l-8.546-7.699l-0.19-0.171l-0.238-0.093l-10.525-4.114 c-0.804-0.314-1.204-1.247-0.892-2.079C34.676,50.654,35.239,50.254,35.877,50.254 M35.877,48.854 c-1.182,0-2.297,0.734-2.745,1.928v0c-0.58,1.547,0.178,3.282,1.694,3.874l10.525,4.114l8.546,7.699 c0.559,0.503,1.252,0.751,1.943,0.751c0.814,0,1.624-0.343,2.204-1.015c1.074-1.242,0.958-3.138-0.259-4.234l-8.813-7.939 c-0.076-0.068-0.16-0.117-0.241-0.176c-0.243-0.208-0.515-0.389-0.828-0.511l-10.977-4.29 C36.582,48.918,36.226,48.854,35.877,48.854L35.877,48.854z"/><path fill="#f6cca4" d="M45.5,43.3c-0.141,0-0.293-0.024-0.479-0.076c-0.189-0.039-0.311-0.075-0.424-0.123L37.24,39.96 c-0.442-0.189-0.785-0.539-0.964-0.985c-0.179-0.446-0.174-0.935,0.015-1.377c0.284-0.665,0.934-1.094,1.657-1.094 c0.242,0,0.479,0.049,0.705,0.145l7.146,3.052H54.5c0.993,0,1.8,0.807,1.8,1.8s-0.807,1.8-1.8,1.8H45.5z"/><path fill="#472b29" d="M37.947,37.204c0.148,0,0.292,0.03,0.431,0.089l7.015,2.995l0.263,0.112h0.286H54.5 c0.607,0,1.1,0.493,1.1,1.1s-0.493,1.1-1.1,1.1h-9c-0.076,0-0.168-0.016-0.291-0.05l-0.055-0.015l-0.056-0.011 c-0.086-0.016-0.16-0.038-0.227-0.067l-7.357-3.141c-0.558-0.238-0.818-0.886-0.58-1.444 C37.108,37.466,37.506,37.204,37.947,37.204L37.947,37.204 M37.947,35.804c-0.971,0-1.895,0.569-2.3,1.519 c-0.542,1.27,0.048,2.739,1.318,3.281l7.357,3.141c0.168,0.072,0.34,0.121,0.512,0.154C45.047,43.958,45.268,44,45.5,44h9 c1.381,0,2.5-1.119,2.5-2.5c0-1.381-1.119-2.5-2.5-2.5h-8.558l-7.015-2.995C38.608,35.868,38.275,35.804,37.947,35.804 L37.947,35.804z"/><path fill="#f6cca4" d="M32.721,78.132c-0.221,0-0.442-0.032-0.656-0.096c-0.589-0.175-1.075-0.568-1.367-1.108 c-0.293-0.54-0.358-1.162-0.183-1.751l3.313-11.159l-0.472-11.653c-0.024-0.613,0.191-1.2,0.608-1.652s0.984-0.714,1.598-0.739 c0.001,0,0.002,0,0.004,0c1.331,0,2.337,0.969,2.387,2.206l0.483,12.007l-0.013,0.173c-0.002,0.095-0.004,0.17-0.014,0.247 l-0.04,0.218c-0.008,0.053-0.014,0.106-0.03,0.159l-3.415,11.504C34.637,77.455,33.73,78.132,32.721,78.132L32.721,78.132z"/><path fill="#472b29" d="M35.656,50.672c0.86,0,1.562,0.674,1.597,1.535l0.484,11.958c0-0.002,0-0.004-0.001-0.004 c0,0,0,0.001-0.001,0.002c-0.005,0.056-0.01,0.111-0.013,0.198c-0.001,0.053-0.001,0.106-0.009,0.155L37.7,64.579L37.696,64.6 l-0.02,0.121l-0.008,0.061l-3.415,11.504c-0.2,0.674-0.83,1.145-1.533,1.145c-0.153,0-0.307-0.023-0.457-0.067 c-0.846-0.251-1.33-1.143-1.079-1.989l3.28-11.048l0.066-0.223l-0.009-0.232l-0.467-11.536c-0.017-0.427,0.133-0.835,0.423-1.149 c0.29-0.314,0.684-0.497,1.111-0.514L35.656,50.672 M35.656,49.272c-0.041,0-0.082,0.001-0.123,0.003 c-1.656,0.067-2.943,1.463-2.876,3.119l0.467,11.536l-3.28,11.048c-0.471,1.588,0.434,3.258,2.022,3.73 c0.285,0.085,0.572,0.125,0.855,0.125c1.294,0,2.488-0.843,2.875-2.147l3.415-11.504c0.034-0.113,0.045-0.227,0.065-0.34 c0.01-0.05,0.021-0.098,0.028-0.149c0.013-0.101,0.016-0.201,0.018-0.301c0.004-0.084,0.018-0.165,0.015-0.25l-0.485-11.99 C38.586,50.536,37.257,49.272,35.656,49.272L35.656,49.272z"/><path fill="#ee3e54" d="M32.688,49.5c0,0-0.625,6.125,2.188,7.125s8,2.125,8,2.125l1.563-6.938L32.688,49.5z"/><path fill="#472b29" d="M42.875,59.25c-0.035,0-0.071-0.004-0.106-0.012c-0.213-0.046-5.251-1.143-8.062-2.143 c-3.146-1.118-2.544-7.38-2.518-7.646c0.015-0.14,0.087-0.268,0.2-0.351c0.113-0.084,0.255-0.116,0.394-0.089l11.75,2.313 c0.132,0.025,0.249,0.104,0.322,0.217c0.074,0.113,0.099,0.252,0.069,0.383l-1.563,6.938C43.311,59.092,43.104,59.25,42.875,59.25z M33.144,50.1c-0.098,1.864,0.097,5.414,1.898,6.055c2.252,0.801,6.104,1.695,7.454,1.999l1.34-5.949L33.144,50.1z"/><circle cx="33.5" cy="26.5" r="4.8" fill="#f6cca4"/><path fill="#472b29" d="M33.5,22.4c2.261,0,4.1,1.839,4.1,4.1s-1.839,4.1-4.1,4.1s-4.1-1.839-4.1-4.1 S31.239,22.4,33.5,22.4 M33.5,21c-3.038,0-5.5,2.462-5.5,5.5s2.462,5.5,5.5,5.5s5.5-2.462,5.5-5.5S36.538,21,33.5,21L33.5,21z"/><polygon fill="#ee3e54" points="37.563,48.938 28.438,49.625 31.75,61.625 39,61.188"/><path fill="#472b29" d="M31.75,62.125c-0.223,0-0.421-0.149-0.481-0.367l-3.313-12c-0.04-0.144-0.013-0.298,0.073-0.42 c0.086-0.123,0.222-0.2,0.371-0.211l9.125-0.688c0.265-0.017,0.503,0.174,0.534,0.44l1.438,12.25 c0.016,0.137-0.025,0.274-0.113,0.38c-0.088,0.105-0.216,0.17-0.353,0.178l-7.25,0.438C31.77,62.125,31.76,62.125,31.75,62.125z M29.081,50.078l3.043,11.023l6.318-0.381l-1.32-11.249L29.081,50.078z"/><path fill="#fbcd59" d="M43.875,36.885c0,0-2.883-1.379-4.763-2.173c-1.209-0.51-3.154-0.921-4.847-0.783l-2.496,0.168 c-2.738,0.34-4.413,1.573-5.269,2.236c-1.667,1.292-4.625,3.833-4.625,3.833l4,4.833l2.075-1.594l0.574,8.527l11.348-0.764 l-0.555-8.242l1.508,0.559L43.875,36.885z"/><path fill="#472b29" d="M28.523,52.434c-0.121,0-0.238-0.044-0.329-0.123c-0.1-0.088-0.161-0.211-0.17-0.344l-0.511-7.595 l-1.334,1.025c-0.214,0.166-0.518,0.129-0.69-0.078l-4-4.833c-0.174-0.21-0.147-0.521,0.06-0.698 c0.03-0.025,2.987-2.564,4.645-3.849c0.759-0.589,2.538-1.968,5.514-2.337l2.524-0.171c1.813-0.145,3.855,0.307,5.074,0.822 c1.87,0.789,4.756,2.168,4.785,2.182c0.247,0.118,0.353,0.413,0.238,0.661l-3.05,6.601c-0.11,0.238-0.384,0.351-0.628,0.259 l-0.783-0.291l0.503,7.472c0.009,0.132-0.035,0.263-0.123,0.362s-0.21,0.161-0.343,0.17l-11.349,0.764 C28.546,52.434,28.535,52.434,28.523,52.434z M27.95,42.906c0.07,0,0.14,0.015,0.206,0.044c0.168,0.076,0.28,0.238,0.293,0.422 l0.54,8.029l10.351-0.697l-0.521-7.744c-0.011-0.169,0.064-0.333,0.2-0.434c0.136-0.102,0.313-0.128,0.473-0.068l1.074,0.398 l2.648-5.732c-0.882-0.417-2.885-1.356-4.296-1.952c-1.108-0.467-2.963-0.881-4.611-0.745l-2.503,0.168 c-2.675,0.333-4.302,1.594-4.997,2.132c-1.289,0.999-3.385,2.775-4.232,3.498l3.379,4.083l1.692-1.3 C27.734,42.941,27.841,42.906,27.95,42.906z"/><g><path fill="#d1dc82" d="M80.972,61.803c-4.765,0-9.503-0.741-14.093-2.204l0.445-1.992l0.11-1.372 c0.115-1.581,0.159-2.173,0.519-4.268c0.889-3.84,3.331-6.798,6.213-7.497l0.681-0.165l-0.166-0.681 c-0.14-0.576-0.27-0.971-0.375-1.29c-0.205-0.62-0.273-0.828-0.148-1.68c0.024-0.164,0.561-0.471,1.744-0.471 c1.5,0,3.194,0.495,3.701,1.082c0.071,0.083,0.104,0.151,0.096,0.203c-0.103,0.569-0.242,0.747-0.547,1.135 c-0.243,0.31-0.576,0.733-0.973,1.476l-0.351,0.656l0.675,0.311c2.933,1.347,4.825,5.199,4.5,9.158 c-0.282,1.89-0.455,2.55-0.769,3.749c-0.118,0.449-0.254,0.973-0.423,1.66l-0.021,0.083l0.003,2.101 C81.52,61.801,81.246,61.803,80.972,61.803C80.972,61.803,80.972,61.803,80.972,61.803z"/><path fill="#472b29" d="M75.901,40.883c1.375,0,2.615,0.425,3.046,0.729c-0.059,0.192-0.144,0.3-0.347,0.559 c-0.259,0.33-0.614,0.781-1.04,1.578l-0.701,1.311l1.351,0.621c2.664,1.224,4.383,4.76,4.098,8.42 c-0.278,1.862-0.437,2.472-0.752,3.676c-0.118,0.452-0.256,0.977-0.425,1.668l-0.041,0.166l0,0.171l0.002,1.321 c-0.038,0-0.077,0-0.115,0c-4.483,0-8.943-0.666-13.275-1.981l0.304-1.363l0.022-0.097l0.008-0.099 c0.039-0.499,0.069-0.916,0.096-1.281c0.116-1.588,0.156-2.13,0.504-4.156c0.844-3.605,3.077-6.341,5.695-6.976l1.362-0.33 l-0.331-1.361c-0.148-0.606-0.288-1.032-0.391-1.343c-0.164-0.498-0.209-0.635-0.156-1.095 C74.995,40.958,75.347,40.883,75.901,40.883 M75.901,39.483c-1.263,0-2.326,0.32-2.437,1.07c-0.218,1.484,0.11,1.489,0.536,3.237 c-3.414,0.828-5.854,4.237-6.738,8.059c-0.449,2.607-0.413,2.915-0.623,5.606l-0.583,2.613c4.837,1.612,9.809,2.436,14.92,2.436 c0.505,0,1.01-0.008,1.517-0.024L82.49,59.78c0.628-2.557,0.81-2.827,1.21-5.52c0.328-3.993-1.464-8.271-4.905-9.852 c0.879-1.645,1.361-1.527,1.596-2.84C80.571,40.34,77.969,39.483,75.901,39.483L75.901,39.483z"/></g><g><path fill="#472b29" d="M39.333,43.792c-0.255,0-0.473-0.194-0.498-0.454l-0.208-2.229 c-0.025-0.275,0.177-0.519,0.452-0.544c0.269-0.023,0.519,0.177,0.544,0.452l0.208,2.229c0.025,0.275-0.177,0.519-0.452,0.544 C39.364,43.791,39.349,43.792,39.333,43.792z"/></g><g><path fill="#472b29" d="M27.521,44.25c-0.147,0-0.293-0.065-0.392-0.189c-0.172-0.216-0.135-0.531,0.081-0.702l1.813-1.438 c0.215-0.173,0.53-0.136,0.702,0.081c0.172,0.216,0.135,0.531-0.081,0.702l-1.813,1.438C27.74,44.215,27.63,44.25,27.521,44.25z"/></g><g><path fill="#472b29" d="M80.447,50.15c-0.097,0-0.189-0.057-0.23-0.152c-0.439-1.032-1.091-1.89-1.938-2.552 c-0.109-0.085-0.128-0.242-0.043-0.351c0.085-0.109,0.243-0.128,0.351-0.043c0.914,0.714,1.617,1.639,2.09,2.749 c0.054,0.127-0.005,0.274-0.132,0.328C80.513,50.144,80.48,50.15,80.447,50.15z"/></g><g><path fill="#472b29" d="M80.974,55.891c-0.014,0-0.027-0.001-0.041-0.003c-0.136-0.022-0.229-0.151-0.207-0.287 c0.209-1.285,0.219-2.572,0.028-3.722c-0.022-0.137,0.069-0.265,0.206-0.288c0.137-0.018,0.265,0.07,0.288,0.206 c0.2,1.203,0.19,2.546-0.028,3.884C81.2,55.804,81.094,55.891,80.974,55.891z"/></g><g><path fill="#472b29" d="M78.575,60.06c-2.235,0-8.101-1.248-8.377-1.308c-0.135-0.028-0.221-0.161-0.192-0.297 c0.029-0.135,0.167-0.22,0.297-0.191c2.067,0.441,7.674,1.523,8.764,1.258c0.234-0.06,0.782-0.708,1.254-2.2 c0.042-0.131,0.182-0.204,0.314-0.163c0.131,0.042,0.204,0.183,0.163,0.313c-0.172,0.543-0.796,2.33-1.609,2.534 C79.041,60.043,78.832,60.06,78.575,60.06z"/></g><g><path fill="#472b29" d="M76.819,45.471c-0.736,0-1.604-0.222-2.533-0.901c-2.372,0.885-4.463,0.318-5.148-0.778 c-0.406-0.65-0.256-1.39,0.403-1.978c1.247-1.111,2.096-0.312,3.382,0.896c0.391,0.367,0.834,0.783,1.361,1.224 c0.029,0.024,0.058,0.048,0.086,0.071c0.113-0.016,0.231,0.04,0.276,0.151c0.009,0.023,0.015,0.046,0.018,0.07 c2.304,1.616,4.11,0.102,4.13,0.085c0.104-0.089,0.262-0.078,0.353,0.026c0.09,0.104,0.079,0.262-0.026,0.353 C79.107,44.702,78.19,45.471,76.819,45.471z M70.691,41.788c-0.261,0-0.515,0.13-0.816,0.399c-0.476,0.425-0.587,0.901-0.313,1.34 c0.457,0.73,2.092,1.385,4.265,0.674c-0.478-0.406-0.883-0.787-1.245-1.127C71.69,42.237,71.178,41.788,70.691,41.788z"/></g><g><path fill="#472b29" d="M74.375,44c-0.109,0-0.21-0.072-0.241-0.183c-1.222-4.374-4.577-4.116-4.611-4.11 c-0.14,0.007-0.259-0.088-0.272-0.226c-0.013-0.137,0.088-0.259,0.226-0.272c0.034-0.003,3.806-0.299,5.139,4.473 c0.037,0.133-0.041,0.271-0.173,0.308C74.42,43.997,74.397,44,74.375,44z"/></g><g><path fill="#9f8066" d="M77.975,54.664c0-0.455-0.089-0.852-0.268-1.19c-0.179-0.34-0.401-0.599-0.666-0.777 c-0.264-0.179-0.551-0.345-0.86-0.497c-0.31-0.153-0.596-0.279-0.861-0.381c-0.265-0.1-0.486-0.23-0.665-0.391 s-0.269-0.349-0.269-0.564c0-0.269,0.11-0.479,0.33-0.632c0.22-0.152,0.531-0.229,0.933-0.229c0.365,0,0.697,0.071,0.995,0.212 c0.298,0.142,0.48,0.212,0.547,0.212c0.179,0,0.32-0.088,0.425-0.266c0.104-0.177,0.157-0.349,0.157-0.515 c0-0.176-0.077-0.329-0.229-0.459c-0.153-0.13-0.351-0.226-0.593-0.287s-0.471-0.105-0.688-0.132 c-0.093-0.011-0.176-0.011-0.265-0.017v-0.647c0-0.276-0.224-0.5-0.5-0.5s-0.5,0.224-0.5,0.5v0.682 c-0.109,0.018-0.218,0.034-0.322,0.061c-0.306,0.08-0.593,0.205-0.861,0.375s-0.482,0.408-0.643,0.715 c-0.161,0.306-0.241,0.66-0.241,1.061c0,0.358,0.065,0.677,0.196,0.956s0.302,0.503,0.514,0.671 c0.212,0.167,0.447,0.318,0.704,0.452c0.257,0.135,0.512,0.256,0.766,0.363c0.253,0.108,0.486,0.22,0.699,0.336 c0.212,0.115,0.384,0.261,0.514,0.436s0.196,0.374,0.196,0.598c0,0.321-0.119,0.563-0.358,0.727 c-0.238,0.164-0.536,0.246-0.894,0.246c-0.261,0-0.5-0.046-0.715-0.14c-0.216-0.093-0.382-0.195-0.498-0.308 s-0.235-0.215-0.357-0.308c-0.123-0.093-0.233-0.14-0.33-0.14c-0.164,0-0.311,0.088-0.441,0.263 c-0.13,0.176-0.196,0.349-0.196,0.521c0,0.343,0.253,0.659,0.76,0.95c0.426,0.244,0.939,0.362,1.507,0.401v0.667 c0,0.276,0.224,0.5,0.5,0.5s0.5-0.224,0.5-0.5V56.99c0.487-0.088,0.905-0.269,1.243-0.558 C77.731,56.018,77.975,55.428,77.975,54.664z"/><path fill="#472b29" d="M75.5,58.313c-0.345,0-0.625-0.28-0.625-0.625v-0.552c-0.584-0.052-1.058-0.186-1.444-0.407 c-0.546-0.313-0.823-0.67-0.823-1.059c0-0.197,0.074-0.397,0.22-0.595c0.25-0.336,0.56-0.441,0.947-0.148 c0.126,0.096,0.25,0.202,0.369,0.317c0.104,0.102,0.259,0.196,0.46,0.282c0.198,0.086,0.422,0.13,0.666,0.13 c0.33,0,0.607-0.075,0.823-0.224c0.205-0.14,0.304-0.344,0.304-0.624c0-0.197-0.056-0.368-0.171-0.522 c-0.119-0.16-0.279-0.295-0.474-0.4c-0.206-0.113-0.431-0.222-0.688-0.331c-0.253-0.107-0.514-0.231-0.774-0.368 c-0.26-0.135-0.503-0.292-0.723-0.464c-0.227-0.18-0.412-0.421-0.55-0.717c-0.138-0.295-0.208-0.635-0.208-1.009 c0-0.42,0.086-0.796,0.255-1.119c0.17-0.325,0.4-0.581,0.687-0.762c0.278-0.176,0.58-0.308,0.896-0.39 c0.075-0.019,0.151-0.033,0.229-0.046v-0.576c0-0.345,0.28-0.625,0.625-0.625s0.625,0.28,0.625,0.625v0.528 c0.05,0.002,0.101,0.005,0.155,0.012c0.222,0.028,0.458,0.073,0.703,0.135c0.26,0.065,0.477,0.171,0.643,0.313 c0.181,0.154,0.273,0.341,0.273,0.554c0,0.188-0.059,0.382-0.174,0.578c-0.126,0.214-0.311,0.328-0.533,0.328 c-0.063,0-0.185-0.027-0.601-0.225c-0.28-0.133-0.597-0.2-0.941-0.2c-0.374,0-0.664,0.069-0.862,0.207 c-0.186,0.129-0.276,0.302-0.276,0.529c0,0.181,0.074,0.335,0.227,0.472c0.167,0.149,0.378,0.273,0.625,0.366 c0.275,0.105,0.568,0.235,0.873,0.386c0.312,0.154,0.606,0.324,0.875,0.506c0.281,0.189,0.519,0.466,0.706,0.822 c0.188,0.355,0.283,0.775,0.283,1.249c0,0.799-0.261,1.426-0.776,1.864c-0.323,0.274-0.726,0.465-1.199,0.564v0.595 C76.125,58.032,75.845,58.313,75.5,58.313z M73.37,55.012c-0.123,0-0.234,0.069-0.341,0.213c-0.115,0.154-0.171,0.301-0.171,0.445 c0,0.293,0.235,0.576,0.697,0.842c0.379,0.217,0.854,0.343,1.454,0.384c0.065,0.005,0.116,0.06,0.116,0.125v0.667 c0,0.207,0.168,0.375,0.375,0.375s0.375-0.168,0.375-0.375V56.99c0-0.061,0.043-0.112,0.103-0.123 c0.473-0.086,0.872-0.264,1.184-0.529c0.457-0.389,0.688-0.952,0.688-1.674c0-0.432-0.085-0.813-0.253-1.132 c-0.168-0.319-0.379-0.566-0.625-0.732c-0.259-0.175-0.544-0.34-0.846-0.488c-0.297-0.147-0.583-0.274-0.851-0.377 c-0.276-0.104-0.513-0.243-0.704-0.414c-0.206-0.185-0.31-0.405-0.31-0.657c0-0.311,0.129-0.558,0.384-0.734 c0.241-0.167,0.579-0.251,1.004-0.251c0.382,0,0.735,0.076,1.049,0.225c0.392,0.187,0.481,0.2,0.495,0.2 c0.133,0,0.234-0.065,0.316-0.205c0.093-0.157,0.14-0.309,0.14-0.451c0-0.139-0.061-0.258-0.185-0.364 c-0.137-0.117-0.32-0.205-0.542-0.261c-0.235-0.059-0.461-0.103-0.672-0.129c-0.055-0.007-0.106-0.009-0.158-0.011l-0.1-0.005 c-0.065-0.004-0.116-0.059-0.116-0.125v-0.647c0-0.207-0.168-0.375-0.375-0.375s-0.375,0.168-0.375,0.375v0.682 c0,0.061-0.044,0.113-0.104,0.124l-0.052,0.008c-0.088,0.014-0.176,0.028-0.26,0.05c-0.292,0.076-0.569,0.197-0.825,0.359 c-0.248,0.157-0.45,0.382-0.599,0.667c-0.15,0.286-0.227,0.624-0.227,1.002c0,0.338,0.062,0.642,0.184,0.903 c0.122,0.26,0.282,0.471,0.479,0.626c0.207,0.162,0.438,0.311,0.684,0.438c0.255,0.134,0.509,0.255,0.757,0.359 c0.265,0.113,0.498,0.226,0.71,0.342c0.227,0.123,0.413,0.281,0.554,0.47c0.146,0.196,0.221,0.423,0.221,0.673 c0,0.363-0.139,0.643-0.413,0.83c-0.258,0.178-0.583,0.268-0.964,0.268c-0.279,0-0.536-0.051-0.765-0.15 c-0.228-0.098-0.408-0.209-0.535-0.332c-0.112-0.108-0.228-0.209-0.346-0.298C73.525,55.052,73.437,55.012,73.37,55.012z"/></g><g><path fill="#472b29" d="M35.768,49.97c-0.13,0-0.24-0.101-0.249-0.232c-0.01-0.138,0.094-0.257,0.232-0.267l2.231-0.157 c0.123-0.011,0.257,0.094,0.267,0.232c0.01,0.138-0.094,0.257-0.232,0.267l-2.231,0.157C35.78,49.97,35.774,49.97,35.768,49.97z"/></g><g><path fill="#472b29" d="M28.541,50.479c-0.13,0-0.24-0.101-0.249-0.232c-0.01-0.138,0.094-0.257,0.232-0.267l5.976-0.421 c0.126-0.016,0.257,0.093,0.267,0.232c0.01,0.138-0.094,0.257-0.232,0.267l-5.976,0.421C28.553,50.479,28.547,50.479,28.541,50.479 z"/></g><g><path fill="#472b29" d="M63.055,56.787c-0.107,0-0.206-0.069-0.239-0.177c-0.04-0.132,0.034-0.272,0.166-0.313 c0.58-0.177,1.168-0.301,1.75-0.367c0.13-0.014,0.261,0.081,0.277,0.22c0.016,0.137-0.083,0.261-0.22,0.276 c-0.552,0.063-1.11,0.182-1.661,0.35C63.104,56.783,63.079,56.787,63.055,56.787z"/></g><g><path fill="#472b29" d="M58.377,59.583c-0.062,0-0.124-0.022-0.172-0.068c-0.1-0.095-0.104-0.253-0.01-0.354 c0.054-0.057,1.338-1.399,3.454-2.358c0.125-0.058,0.274-0.001,0.331,0.124c0.057,0.126,0.001,0.274-0.125,0.331 c-2.021,0.917-3.284,2.234-3.296,2.247C58.51,59.557,58.444,59.583,58.377,59.583z"/></g><g><path fill="#472b29" d="M58.965,54.601c-0.083,0-0.163-0.041-0.211-0.116c-0.074-0.116-0.04-0.271,0.077-0.345 c1.883-1.198,3.903-1.806,6.003-1.806c0.138,0,0.25,0.112,0.25,0.25s-0.112,0.25-0.25,0.25c-2.003,0-3.933,0.581-5.734,1.728 C59.058,54.588,59.011,54.601,58.965,54.601z"/></g><g><path fill="#472b29" d="M56.25,56.942c-0.054,0-0.109-0.018-0.155-0.054c-0.108-0.085-0.127-0.242-0.042-0.351 c0.019-0.023,0.461-0.582,1.287-1.292c0.106-0.09,0.263-0.078,0.353,0.026c0.09,0.104,0.078,0.263-0.026,0.353 c-0.786,0.676-1.215,1.217-1.22,1.222C56.397,56.909,56.324,56.942,56.25,56.942z"/></g></svg>