<svg xmlns="http://www.w3.org/2000/svg"  viewBox="0 0 48 48" width="48px" height="48px"><radialGradient id="0dAPj74t0n6MXyoxLtMdSa" cx="24.096" cy="34.511" r="14.381" gradientTransform="matrix(1 0 0 .781 0 7.56)" gradientUnits="userSpaceOnUse"><stop offset="0" stop-color="#383838"/><stop offset=".279" stop-color="#2d2d2d"/><stop offset=".766" stop-color="#101010"/><stop offset="1"/></radialGradient><path fill="url(#0dAPj74t0n6MXyoxLtMdSa)" d="M12.171,22.008c0,0-0.528,6.69-0.603,8.925C11.452,34.374,24,38.75,24,38.75 s12.563-4.419,12.432-7.816c-0.086-2.236-0.689-8.925-0.689-8.925H12.171z"/><radialGradient id="0dAPj74t0n6MXyoxLtMdSb" cx="36.141" cy="37.855" r="3.717" gradientTransform="matrix(.8529 0 0 1.2391 5.098 -9.05)" gradientUnits="userSpaceOnUse"><stop offset="0" stop-color="#ffcf14"/><stop offset=".186" stop-color="#fac715"/><stop offset=".475" stop-color="#ecb118"/><stop offset=".828" stop-color="#d68e1c"/><stop offset="1" stop-color="#c97a1f"/></radialGradient><path fill="url(#0dAPj74t0n6MXyoxLtMdSb)" d="M36.024,41.381L36.024,41.381c-1.141,0-2.066-0.665-2.066-1.282 c0-3.704,0.925-8.05,2.066-8.05h0c1.141,0,2.066,4.298,2.066,8.05C38.09,40.835,37.165,41.381,36.024,41.381z"/><polygon fill="#262626" points="44.978,17.085 24,7.933 3.022,17.085 0.009,17.085 0.009,18.399 24,28.865 47.991,18.399 47.991,17.085"/><radialGradient id="0dAPj74t0n6MXyoxLtMdSc" cx="24.198" cy="26.798" r="39.691" gradientTransform="matrix(1 0 0 .5209 0 12.839)" gradientUnits="userSpaceOnUse"><stop offset="0" stop-color="#383838"/><stop offset=".279" stop-color="#2d2d2d"/><stop offset=".766" stop-color="#101010"/><stop offset="1"/></radialGradient><path fill="url(#0dAPj74t0n6MXyoxLtMdSc)" d="M47.991,17.085L24,27.551L0.009,17.085L24,6.619L47.991,17.085z"/><path fill="#c97a1f" d="M36.563,32.049H35.55v-4.748v-4.748l-5.533-2.428l-5.533-2.428l0.407-0.928l5.533,2.428 l5.533,2.428c0.368,0.162,0.606,0.526,0.606,0.928v4.748V32.049z"/><path fill="#ca7b1f" d="M24.897,16.778c0,0,0.068,0.029,0.069,0.029l5.463,2.398l5.524,2.424 c0.238,0.104,0.427,0.297,0.525,0.527c0.052,0.122,0.081,0.256,0.081,0.394l0,4.741l0,4.741c0,0-0.12,0.001-0.121,0.001h0 c0,0-0.129,0-0.129-0.001l-0.754-0.008l0-4.051l0-0.689l0-4.131l-0.005-0.605l-5.524-2.424l-0.056-0.024L24.504,17.7 l0.344-0.807C24.847,16.893,24.897,16.778,24.897,16.778z"/><path fill="#ca7c1f" d="M24.904,16.787c0-0.001,0.068,0.028,0.069,0.028l5.461,2.398l5.514,2.421 c0.235,0.103,0.429,0.297,0.526,0.524c0.052,0.121,0.081,0.253,0.081,0.39l-0.001,4.733l-0.001,4.733 c0,0.001-0.119,0.002-0.12,0.002h0c-0.001,0-0.128-0.001-0.128-0.002l-0.745-0.015l0.001-4.044l0-0.688l0.001-4.124l-0.01-0.601 l-5.515-2.421l-0.056-0.025l-5.458-2.396l0.332-0.801C24.854,16.901,24.904,16.787,24.904,16.787z"/><path fill="#cb7d1f" d="M24.91,16.795c0.001-0.001,0.068,0.027,0.069,0.028l5.459,2.398l5.505,2.417 c0.232,0.102,0.431,0.296,0.527,0.521c0.052,0.12,0.08,0.251,0.08,0.387l-0.001,4.726l-0.001,4.726 c0,0.001-0.118,0.003-0.12,0.003h0c-0.001,0-0.128-0.001-0.128-0.003l-0.736-0.023l0.001-4.037l0-0.686l0.001-4.116 l-0.015-0.596l-5.506-2.417l-0.056-0.025l-5.448-2.392l0.321-0.795C24.862,16.91,24.91,16.796,24.91,16.795z"/><path fill="#cc7e1e" d="M24.917,16.804c0.001-0.002,0.068,0.026,0.07,0.027l5.458,2.397l5.495,2.413 c0.229,0.101,0.433,0.296,0.528,0.518c0.052,0.118,0.08,0.248,0.08,0.383l-0.002,4.719l-0.002,4.719 c0,0.002-0.117,0.003-0.119,0.003h0c-0.002,0-0.127-0.002-0.127-0.004l-0.727-0.03l0.001-4.03l0-0.685l0.001-4.109l-0.02-0.591 l-5.497-2.414l-0.057-0.025l-5.438-2.388l0.309-0.789C24.869,16.918,24.916,16.806,24.917,16.804z"/><path fill="#cc7f1e" d="M24.923,16.812c0.001-0.002,0.068,0.025,0.07,0.026l5.456,2.397l5.485,2.41 c0.226,0.099,0.435,0.296,0.529,0.515c0.051,0.117,0.079,0.246,0.079,0.379l-0.002,4.712l-0.002,4.712 c0,0.002-0.116,0.004-0.119,0.004h0c-0.002,0-0.126-0.002-0.126-0.004l-0.718-0.038l0.002-4.023l0-0.684l0.002-4.102 l-0.026-0.586l-5.488-2.411l-0.057-0.025l-5.428-2.384l0.297-0.783C24.876,16.926,24.922,16.815,24.923,16.812z"/><path fill="#cd801e" d="M24.93,16.821c0.001-0.003,0.068,0.024,0.071,0.025l5.454,2.397l5.476,2.406 c0.224,0.098,0.437,0.295,0.53,0.511c0.051,0.116,0.079,0.243,0.079,0.375l-0.002,4.705l-0.002,4.705 c0,0.003-0.115,0.005-0.118,0.005h0c-0.003,0-0.126-0.002-0.126-0.005L35.581,31.9l0.002-4.016l0-0.683l0.002-4.095 l-0.031-0.581l-5.479-2.407l-0.057-0.025l-5.418-2.38l0.285-0.777C24.883,16.934,24.929,16.824,24.93,16.821z"/><path fill="#cd811e" d="M24.936,16.83c0.001-0.003,0.068,0.023,0.071,0.024l5.452,2.397l5.466,2.402 c0.221,0.097,0.439,0.295,0.53,0.508c0.051,0.114,0.078,0.241,0.078,0.371l-0.003,4.698l-0.003,4.698 c0,0.003-0.114,0.006-0.118,0.006h0c-0.003,0-0.125-0.003-0.125-0.006l-0.7-0.053l0.002-4.009l0-0.681l0.002-4.088l-0.036-0.577 l-5.47-2.404l-0.058-0.025l-5.408-2.376l0.273-0.771C24.89,16.943,24.935,16.833,24.936,16.83z"/><path fill="#ce821e" d="M24.943,16.838c0.002-0.004,0.068,0.022,0.071,0.024l5.45,2.396l5.457,2.399 c0.218,0.096,0.441,0.295,0.531,0.505c0.05,0.113,0.078,0.238,0.078,0.367l-0.003,4.69l-0.003,4.69 c0,0.004-0.113,0.007-0.117,0.007h0c-0.004,0-0.124-0.003-0.124-0.007l-0.691-0.06l0.003-4.002l0-0.68l0.003-4.081l-0.041-0.572 l-5.461-2.4l-0.058-0.026l-5.398-2.373l0.261-0.765C24.897,16.951,24.941,16.842,24.943,16.838z"/><path fill="#cf831e" d="M24.949,16.847c0.002-0.004,0.068,0.021,0.072,0.023l5.448,2.396l5.447,2.395 c0.215,0.094,0.443,0.294,0.532,0.502c0.05,0.112,0.078,0.236,0.078,0.364l-0.004,4.683l-0.004,4.683 c0,0.004-0.112,0.008-0.117,0.008h0c-0.004,0-0.124-0.004-0.124-0.008l-0.682-0.068l0.003-3.995l0.001-0.679l0.003-4.073 l-0.046-0.567l-5.452-2.397l-0.058-0.026l-5.388-2.369l0.25-0.759C24.904,16.959,24.947,16.851,24.949,16.847z"/><path fill="#cf841e" d="M24.956,16.856c0.002-0.004,0.067,0.02,0.072,0.022l5.446,2.396l5.438,2.391 c0.213,0.093,0.445,0.294,0.533,0.499c0.05,0.111,0.077,0.233,0.077,0.36L36.518,27.2l-0.004,4.676 c0,0.005-0.111,0.009-0.116,0.009h0c-0.005,0-0.123-0.004-0.123-0.009l-0.673-0.076l0.003-3.988l0.001-0.678l0.003-4.066 l-0.051-0.562l-5.443-2.393l-0.059-0.026l-5.378-2.365l0.238-0.753C24.911,16.967,24.954,16.86,24.956,16.856z"/><path fill="#d0851e" d="M24.962,16.864c0.002-0.005,0.067,0.019,0.072,0.021l5.445,2.396l5.428,2.388 c0.21,0.092,0.447,0.293,0.534,0.496c0.049,0.109,0.077,0.23,0.077,0.356l-0.004,4.669l-0.004,4.669 c0,0.005-0.11,0.01-0.115,0.01h0c-0.005,0-0.123-0.004-0.123-0.01l-0.664-0.083l0.004-3.981l0.001-0.677l0.004-4.059 l-0.056-0.557l-5.434-2.39l-0.059-0.026l-5.368-2.361l0.226-0.747C24.918,16.976,24.96,16.869,24.962,16.864z"/><path fill="#d1861d" d="M24.969,16.873c0.002-0.005,0.067,0.018,0.073,0.02l5.443,2.395l5.419,2.384 c0.207,0.091,0.449,0.293,0.534,0.493c0.049,0.108,0.076,0.228,0.076,0.352l-0.005,4.662l-0.005,4.662 c0,0.006-0.109,0.01-0.115,0.01h0c-0.006,0-0.122-0.005-0.122-0.011l-0.655-0.091l0.004-3.974l0.001-0.675l0.004-4.052 l-0.061-0.553l-5.425-2.387l-0.059-0.026l-5.358-2.357l0.214-0.741C24.925,16.984,24.966,16.878,24.969,16.873z"/><path fill="#d1871d" d="M24.975,16.882c0.003-0.006,0.067,0.017,0.073,0.02l5.441,2.395l5.409,2.38 c0.204,0.09,0.451,0.293,0.535,0.49c0.049,0.107,0.076,0.225,0.076,0.348l-0.005,4.655l-0.005,4.655 c0,0.006-0.108,0.011-0.114,0.011h0c-0.006,0-0.121-0.005-0.121-0.012l-0.646-0.098l0.004-3.967l0.001-0.674l0.004-4.045 l-0.066-0.548l-5.416-2.383l-0.06-0.026l-5.348-2.353l0.202-0.735C24.932,16.992,24.972,16.887,24.975,16.882z"/><path fill="#d2881d" d="M24.982,16.89c0.003-0.006,0.067,0.016,0.073,0.019l5.439,2.395l5.399,2.377 c0.201,0.088,0.453,0.292,0.536,0.487c0.049,0.105,0.075,0.223,0.075,0.345L36.5,27.16l-0.006,4.647 c0,0.007-0.107,0.012-0.114,0.012h0c-0.007,0-0.121-0.006-0.121-0.013l-0.637-0.106l0.005-3.96l0.001-0.673l0.005-4.038 l-0.071-0.543l-5.407-2.38l-0.06-0.026l-5.338-2.349l0.191-0.729C24.939,17,24.979,16.896,24.982,16.89z"/><path fill="#d2891d" d="M24.988,16.899c0.003-0.007,0.067,0.015,0.074,0.018l5.437,2.395l5.39,2.373 c0.199,0.087,0.455,0.292,0.537,0.484c0.048,0.104,0.075,0.22,0.075,0.341l-0.006,4.64l-0.006,4.64 c0,0.007-0.106,0.013-0.113,0.013h0c-0.007,0-0.12-0.006-0.12-0.013l-0.629-0.113l0.005-3.953l0.001-0.672l0.005-4.03 l-0.077-0.538l-5.398-2.376l-0.06-0.027l-5.329-2.346l0.179-0.723C24.946,17.009,24.985,16.905,24.988,16.899z"/><path fill="#d38a1d" d="M24.995,16.907c0.003-0.007,0.067,0.014,0.074,0.017l5.435,2.395l5.38,2.369 c0.196,0.086,0.457,0.292,0.538,0.481c0.048,0.103,0.075,0.218,0.075,0.337L36.49,27.14l-0.006,4.633 c0,0.008-0.105,0.014-0.113,0.014h0c-0.008,0-0.119-0.006-0.119-0.014l-0.62-0.121l0.005-3.946l0.001-0.67l0.005-4.023 l-0.082-0.533l-5.389-2.373l-0.061-0.027l-5.319-2.342l0.167-0.717C24.953,17.017,24.991,16.914,24.995,16.907z"/><path fill="#d48b1d" d="M25.001,16.916c0.003-0.008,0.067,0.013,0.075,0.016l5.434,2.394l5.371,2.366 c0.193,0.085,0.459,0.291,0.538,0.478c0.048,0.101,0.074,0.215,0.074,0.333l-0.007,4.626l-0.007,4.626 c0,0.008-0.104,0.015-0.112,0.015h0c-0.008,0-0.119-0.007-0.119-0.015l-0.611-0.128l0.006-3.939l0.001-0.669l0.006-4.016 l-0.087-0.529l-5.38-2.37l-0.061-0.027l-5.309-2.338l0.155-0.711C24.96,17.025,24.998,16.924,25.001,16.916z"/><path fill="#d48c1d" d="M25.007,16.925c0.004-0.008,0.067,0.012,0.075,0.016l5.432,2.394l5.361,2.362 c0.19,0.083,0.461,0.291,0.539,0.475c0.047,0.1,0.074,0.213,0.074,0.329l-0.007,4.619l-0.007,4.619 c0,0.009-0.103,0.016-0.112,0.016h0c-0.009,0-0.118-0.007-0.118-0.016l-0.602-0.136l0.006-3.932l0.001-0.668l0.006-4.009 l-0.092-0.524l-5.371-2.366l-0.061-0.027l-5.299-2.334l0.143-0.705C24.967,17.033,25.004,16.933,25.007,16.925z"/><path fill="#d58d1d" d="M25.014,16.933c0.004-0.009,0.067,0.011,0.075,0.015l5.43,2.394l5.352,2.358 c0.187,0.082,0.463,0.291,0.54,0.472c0.047,0.099,0.073,0.21,0.073,0.326l-0.008,4.612l-0.008,4.612 c0,0.009-0.102,0.017-0.111,0.017h0c-0.009,0-0.118-0.008-0.118-0.017l-0.593-0.143l0.006-3.925l0.001-0.667l0.006-4.002 l-0.097-0.519l-5.362-2.363l-0.062-0.027l-5.289-2.33l0.131-0.699C24.975,17.042,25.01,16.942,25.014,16.933z"/><path fill="#d68e1c" d="M25.02,16.942c0.004-0.009,0.067,0.01,0.076,0.014l5.428,2.394l5.342,2.355 c0.185,0.081,0.465,0.29,0.541,0.469c0.047,0.098,0.073,0.208,0.073,0.322l-0.008,4.605l-0.008,4.605 c0,0.01-0.101,0.017-0.111,0.017h0c-0.01,0-0.117-0.008-0.117-0.018l-0.584-0.151l0.007-3.918l0.001-0.666l0.007-3.995 l-0.102-0.514L30.212,20.1l-0.062-0.027l-5.279-2.326l0.12-0.692C24.982,17.05,25.016,16.951,25.02,16.942z"/><path fill="#d68f1c" d="M25.027,16.951c0.004-0.009,0.067,0.009,0.076,0.013l5.426,2.393l5.333,2.351 c0.182,0.08,0.467,0.29,0.542,0.466c0.047,0.096,0.073,0.205,0.073,0.318l-0.008,4.597l-0.008,4.597 c0,0.01-0.1,0.018-0.11,0.018h0c-0.01,0-0.116-0.008-0.116-0.019l-0.575-0.159l0.007-3.911l0.001-0.664l0.007-3.987 l-0.107-0.509l-5.345-2.356l-0.062-0.027l-5.269-2.323l0.108-0.686C24.989,17.058,25.023,16.96,25.027,16.951z"/><path fill="#d7901c" d="M25.033,16.959c0.004-0.01,0.066,0.008,0.076,0.012l5.424,2.393l5.323,2.347 c0.179,0.079,0.469,0.289,0.542,0.462c0.046,0.095,0.072,0.202,0.072,0.314l-0.009,4.59l-0.009,4.59 c0,0.011-0.099,0.019-0.11,0.019h0c-0.011,0-0.116-0.009-0.116-0.02l-0.566-0.166l0.007-3.904l0.001-0.663l0.007-3.98 l-0.112-0.505l-5.336-2.353l-0.063-0.028l-5.259-2.319l0.096-0.68C24.996,17.067,25.029,16.969,25.033,16.959z"/><path fill="#d7911c" d="M25.04,16.968c0.005-0.01,0.066,0.007,0.077,0.012l5.422,2.393l5.314,2.344 c0.176,0.077,0.471,0.289,0.543,0.459c0.046,0.094,0.072,0.2,0.072,0.31l-0.009,4.583l-0.009,4.583 c0,0.011-0.098,0.02-0.109,0.02h0c-0.011,0-0.115-0.009-0.115-0.021l-0.557-0.174l0.008-3.897l0.001-0.662l0.008-3.973 l-0.117-0.5l-5.327-2.349l-0.063-0.028l-5.249-2.315l0.084-0.674C25.003,17.075,25.035,16.978,25.04,16.968z"/><path fill="#d8921c" d="M25.046,16.977c0.005-0.011,0.066,0.006,0.077,0.011l5.421,2.393l5.304,2.34 c0.173,0.076,0.473,0.289,0.544,0.456c0.046,0.092,0.071,0.197,0.071,0.306l-0.01,4.576l-0.01,4.576 c0,0.012-0.097,0.021-0.109,0.021h0c-0.012,0-0.114-0.01-0.114-0.022l-0.548-0.181l0.008-3.89l0.001-0.661l0.008-3.966 l-0.122-0.495l-5.318-2.346l-0.063-0.028l-5.239-2.311l0.072-0.668C25.01,17.083,25.041,16.987,25.046,16.977z"/><path fill="#d9931c" d="M25.053,16.985c0.005-0.011,0.066,0.005,0.078,0.01l5.419,2.393l5.294,2.336 c0.171,0.075,0.474,0.288,0.545,0.453c0.045,0.091,0.071,0.195,0.071,0.303l-0.01,4.569l-0.01,4.569 c0,0.012-0.096,0.022-0.108,0.022h0c-0.012,0-0.114-0.01-0.114-0.022l-0.539-0.189l0.008-3.883l0.001-0.659l0.009-3.959 l-0.128-0.49l-5.309-2.342l-0.064-0.028l-5.229-2.307l0.06-0.662C25.017,17.091,25.048,16.996,25.053,16.985z"/><path fill="#d9941c" d="M25.059,16.994c0.005-0.012,0.066,0.004,0.078,0.009l5.417,2.392l5.285,2.333 c0.168,0.074,0.476,0.288,0.546,0.45c0.045,0.09,0.07,0.192,0.07,0.299l-0.01,4.562l-0.01,4.562 c0,0.013-0.095,0.023-0.108,0.023h0c-0.013,0-0.113-0.01-0.113-0.023l-0.53-0.196l0.009-3.876l0.001-0.658l0.009-3.952 l-0.133-0.485l-5.3-2.339l-0.064-0.028l-5.219-2.303l0.049-0.656C25.024,17.1,25.054,17.005,25.059,16.994z"/><path fill="#da951c" d="M25.066,17.003c0.005-0.012,0.066,0.003,0.078,0.008l5.415,2.392l5.275,2.329 c0.165,0.072,0.478,0.288,0.547,0.447c0.045,0.088,0.07,0.19,0.07,0.295l-0.011,4.554l-0.011,4.554 c0,0.013-0.094,0.024-0.107,0.024h0c-0.013,0-0.113-0.011-0.113-0.024l-0.521-0.204l0.009-3.869l0.002-0.657l0.009-3.944 l-0.138-0.48l-5.291-2.336l-0.064-0.028l-5.209-2.299l0.037-0.65C25.031,17.108,25.06,17.014,25.066,17.003z"/><path fill="#db961b" d="M25.072,17.011c0.006-0.013,0.066,0.002,0.079,0.008l5.413,2.392l5.266,2.325 c0.162,0.071,0.48,0.287,0.547,0.444c0.044,0.087,0.07,0.187,0.07,0.291l-0.011,4.547l-0.011,4.547 c0,0.014-0.093,0.024-0.107,0.024h0c-0.014,0-0.112-0.011-0.112-0.025l-0.512-0.211l0.009-3.862l0.002-0.656l0.01-3.937 l-0.143-0.476l-5.282-2.332l-0.065-0.029l-5.199-2.296l0.025-0.644C25.038,17.116,25.067,17.023,25.072,17.011z"/><path fill="#db971b" d="M25.079,17.02c0.006-0.013,0.066,0.001,0.079,0.007l5.411,2.392l5.256,2.322 c0.159,0.07,0.482,0.287,0.548,0.441c0.044,0.086,0.069,0.185,0.069,0.287l-0.012,4.54l-0.012,4.54 c0,0.014-0.092,0.025-0.106,0.025h0c-0.014,0-0.111-0.012-0.111-0.026l-0.504-0.219l0.01-3.855l0.002-0.655l0.01-3.93 l-0.148-0.471l-5.273-2.329l-0.065-0.029l-5.189-2.292l0.013-0.638C25.045,17.124,25.073,17.032,25.079,17.02z"/><path fill="#dc981b" d="M25.085,17.028c0.006-0.013,0.066-0.001,0.079,0.006l5.41,2.391l5.247,2.318 c0.157,0.069,0.484,0.287,0.549,0.438c0.044,0.085,0.069,0.182,0.069,0.284l-0.012,4.533l-0.012,4.533 c0,0.014-0.091,0.026-0.106,0.026h0c-0.015,0-0.111-0.012-0.111-0.027l-0.495-0.227l0.01-3.848l0.002-0.653l0.01-3.923 l-0.153-0.466l-5.264-2.325l-0.065-0.029l-5.179-2.288l0.001-0.632C25.052,17.133,25.079,17.042,25.085,17.028z"/><path fill="#dc991b" d="M25.092,17.037c0.006-0.014,0.066-0.002,0.08,0.005l5.408,2.391l5.237,2.314 c0.154,0.067,0.486,0.286,0.55,0.435c0.044,0.083,0.068,0.18,0.068,0.28l-0.012,4.526l-0.012,4.526 c0,0.015-0.09,0.027-0.105,0.027h0c-0.015,0-0.11-0.012-0.11-0.028l-0.486-0.234l0.01-3.842l0.002-0.652l0.011-3.916 l-0.158-0.461l-5.255-2.322l-0.066-0.029l-5.17-2.284l-0.011-0.626C25.059,17.141,25.085,17.051,25.092,17.037z"/><path fill="#dd9a1b" d="M25.098,17.046c0.006-0.014,0.066-0.003,0.08,0.004l5.406,2.391l5.228,2.311 c0.151,0.066,0.488,0.286,0.551,0.432c0.043,0.082,0.068,0.177,0.068,0.276l-0.013,4.519l-0.013,4.519 c0,0.015-0.089,0.028-0.104,0.028h0c-0.016,0-0.109-0.013-0.109-0.029l-0.477-0.242l0.011-3.835l0.002-0.651l0.011-3.909 l-0.163-0.456l-5.246-2.319l-0.066-0.029l-5.16-2.28l-0.022-0.62C25.066,17.149,25.092,17.06,25.098,17.046z"/><path fill="#de9b1b" d="M25.105,17.054c0.007-0.015,0.066-0.004,0.081,0.004l5.404,2.391l5.218,2.307 c0.148,0.065,0.49,0.286,0.551,0.429c0.043,0.081,0.067,0.174,0.067,0.272l-0.013,4.511L36.4,31.479 c0,0.016-0.088,0.029-0.104,0.029h0c-0.016,0-0.109-0.013-0.109-0.03l-0.468-0.249l0.011-3.828l0.002-0.65l0.011-3.902 l-0.168-0.452l-5.237-2.315l-0.066-0.029l-5.15-2.276l-0.034-0.614C25.073,17.157,25.098,17.069,25.105,17.054z"/><path fill="#de9c1b" d="M25.111,17.063c0.007-0.015,0.066-0.005,0.081,0.003l5.402,2.39l5.208,2.303 c0.145,0.064,0.492,0.285,0.552,0.426c0.043,0.079,0.067,0.172,0.067,0.268l-0.013,4.504l-0.013,4.504 c0,0.016-0.087,0.03-0.103,0.03h0c-0.017,0-0.108-0.014-0.108-0.031l-0.459-0.257l0.011-3.821l0.002-0.648l0.012-3.894 l-0.173-0.447l-5.228-2.312l-0.067-0.029l-5.14-2.272l-0.046-0.608C25.08,17.166,25.104,17.078,25.111,17.063z"/><path fill="#df9d1b" d="M25.117,17.072c0.007-0.016,0.065-0.006,0.081,0.002l5.4,2.39l5.199,2.3 c0.143,0.063,0.494,0.285,0.553,0.423c0.042,0.078,0.067,0.169,0.067,0.265l-0.014,4.497l-0.014,4.497 c0,0.017-0.086,0.031-0.103,0.031h0c-0.017,0-0.108-0.014-0.108-0.031l-0.45-0.264l0.012-3.814l0.002-0.647l0.012-3.887 l-0.179-0.442l-5.219-2.308l-0.067-0.03l-5.13-2.269l-0.058-0.602C25.087,17.174,25.11,17.087,25.117,17.072z"/><path fill="#e09e1a" d="M25.124,17.08c0.007-0.016,0.065-0.007,0.082,0.001l5.399,2.39l5.189,2.296 c0.14,0.061,0.496,0.284,0.554,0.42c0.042,0.077,0.066,0.167,0.066,0.261l-0.014,4.49l-0.014,4.49 c0,0.017-0.085,0.031-0.102,0.031h0c-0.018,0-0.107-0.014-0.107-0.032l-0.441-0.272l0.012-3.807l0.002-0.646l0.012-3.88 l-0.184-0.437l-5.21-2.305l-0.067-0.03l-5.12-2.265l-0.07-0.596C25.095,17.182,25.117,17.096,25.124,17.08z"/><path fill="#e09f1a" d="M25.13,17.089c0.007-0.017,0.065-0.008,0.082,0l5.397,2.39l5.18,2.292 c0.137,0.06,0.498,0.284,0.555,0.417c0.042,0.075,0.066,0.164,0.066,0.257l-0.015,4.483L36.38,31.41 c0,0.018-0.084,0.032-0.102,0.032h0c-0.018,0-0.106-0.015-0.106-0.033L35.74,31.13l0.012-3.8l0.002-0.645l0.013-3.873 l-0.189-0.432l-5.201-2.301l-0.067-0.03l-5.11-2.261l-0.081-0.59C25.102,17.191,25.123,17.105,25.13,17.089z"/><path fill="#e1a01a" d="M25.137,17.098c0.008-0.017,0.065-0.009,0.082,0l5.395,2.39l5.17,2.289 c0.134,0.059,0.5,0.284,0.555,0.413c0.041,0.074,0.065,0.162,0.065,0.253l-0.015,4.476l-0.015,4.476 c0,0.018-0.083,0.033-0.101,0.033h0c-0.019,0-0.106-0.015-0.106-0.034l-0.423-0.287l0.013-3.793l0.002-0.643l0.013-3.866 l-0.194-0.428l-5.192-2.298l-0.068-0.03l-5.1-2.257l-0.093-0.584C25.109,17.199,25.129,17.114,25.137,17.098z"/><path fill="#e1a11a" d="M25.143,17.106c0.008-0.017,0.065-0.01,0.083-0.001l5.393,2.389l5.161,2.285 c0.131,0.058,0.502,0.283,0.556,0.41c0.041,0.073,0.065,0.159,0.065,0.249l-0.015,4.468l-0.015,4.468 c0,0.019-0.082,0.034-0.101,0.034h0c-0.019,0-0.105-0.016-0.105-0.035L35.75,31.08l0.013-3.786l0.002-0.642l0.013-3.859 l-0.199-0.423l-5.183-2.295l-0.068-0.03l-5.09-2.253l-0.105-0.578C25.116,17.207,25.136,17.123,25.143,17.106z"/><path fill="#e2a21a" d="M25.15,17.115c0.008-0.018,0.065-0.011,0.083-0.002l5.391,2.389l5.151,2.281 c0.129,0.056,0.504,0.283,0.557,0.407c0.041,0.072,0.064,0.157,0.064,0.246l-0.016,4.461l-0.016,4.461 c0,0.019-0.081,0.035-0.1,0.035h0c-0.02,0-0.104-0.016-0.104-0.036l-0.405-0.302l0.013-3.779l0.002-0.641l0.014-3.851 l-0.204-0.418l-5.174-2.291l-0.068-0.03l-5.08-2.249l-0.117-0.572C25.123,17.215,25.142,17.132,25.15,17.115z"/><path fill="#e3a31a" d="M25.156,17.123c0.008-0.018,0.065-0.012,0.084-0.003l5.389,2.389l5.142,2.278 c0.126,0.055,0.506,0.283,0.558,0.404c0.041,0.07,0.064,0.154,0.064,0.242l-0.016,4.454l-0.016,4.454 c0,0.02-0.08,0.036-0.1,0.036h0c-0.02,0-0.104-0.017-0.104-0.037l-0.396-0.31l0.014-3.772l0.002-0.64l0.014-3.844l-0.209-0.413 l-5.165-2.288l-0.069-0.031l-5.07-2.246l-0.129-0.566C25.13,17.224,25.148,17.141,25.156,17.123z"/><path fill="#e3a41a" d="M25.163,17.132c0.008-0.019,0.065-0.013,0.084-0.004l5.387,2.389l5.132,2.274 c0.123,0.054,0.508,0.282,0.559,0.401c0.04,0.069,0.064,0.152,0.064,0.238l-0.017,4.447l-0.017,4.447 c0,0.02-0.079,0.037-0.099,0.037h0c-0.021,0-0.103-0.017-0.103-0.038l-0.387-0.317l0.014-3.765l0.002-0.639l0.014-3.837 l-0.214-0.408l-5.156-2.284l-0.069-0.031l-5.06-2.242l-0.141-0.56C25.137,17.232,25.154,17.15,25.163,17.132z"/><path fill="#e4a41a" d="M25.169,17.141c0.009-0.019,0.065-0.014,0.084-0.004l5.386,2.388l5.123,2.27 c0.12,0.053,0.51,0.282,0.56,0.398c0.04,0.068,0.063,0.149,0.063,0.234l-0.017,4.44l-0.017,4.44 c0,0.021-0.078,0.038-0.099,0.038h0c-0.021,0-0.103-0.017-0.103-0.039l-0.379-0.325l0.014-3.758l0.002-0.637l0.015-3.83 l-0.219-0.404l-5.147-2.281l-0.069-0.031l-5.05-2.238l-0.152-0.554C25.144,17.24,25.161,17.16,25.169,17.141z"/><path fill="#e5a519" d="M25.176,17.149c0.009-0.02,0.065-0.015,0.085-0.005l5.384,2.388l5.113,2.266 c0.117,0.052,0.512,0.282,0.56,0.395c0.04,0.066,0.063,0.146,0.063,0.23l-0.017,4.433l-0.017,4.433 c0,0.021-0.077,0.038-0.098,0.038h0c-0.022-0.001-0.102-0.018-0.102-0.039l-0.37-0.332l0.015-3.751l0.002-0.636l0.015-3.823 l-0.224-0.399l-5.138-2.278l-0.07-0.031l-5.04-2.234l-0.164-0.548C25.151,17.248,25.167,17.169,25.176,17.149z"/><path fill="#e5a619" d="M25.182,17.158c0.009-0.02,0.065-0.016,0.085-0.006l5.382,2.388l5.103,2.263 c0.115,0.05,0.514,0.281,0.561,0.392c0.039,0.065,0.062,0.144,0.062,0.226l-0.018,4.425l-0.018,4.425 c0,0.022-0.076,0.039-0.098,0.039h0c-0.022-0.001-0.101-0.018-0.101-0.04l-0.361-0.34l0.015-3.744l0.003-0.635l0.015-3.816 l-0.23-0.394l-5.129-2.274l-0.07-0.031l-5.03-2.23l-0.176-0.542C25.158,17.257,25.173,17.178,25.182,17.158z"/><path fill="#e6a719" d="M25.189,17.167c0.009-0.021,0.065-0.017,0.085-0.007l5.38,2.388l5.094,2.259 c0.112,0.049,0.516,0.281,0.562,0.389c0.039,0.064,0.062,0.141,0.062,0.223l-0.018,4.418l-0.018,4.418 c0,0.022-0.075,0.04-0.097,0.04h0c-0.022-0.001-0.101-0.019-0.101-0.041l-0.352-0.347l0.015-3.737l0.003-0.634l0.016-3.808 l-0.235-0.389l-5.12-2.271l-0.07-0.031l-5.02-2.226l-0.188-0.536C25.165,17.265,25.179,17.187,25.189,17.167z"/><path fill="#e7a819" d="M25.195,17.175c0.009-0.021,0.064-0.018,0.086-0.008l5.378,2.387l5.084,2.255 c0.109,0.048,0.518,0.28,0.563,0.386c0.039,0.062,0.062,0.139,0.062,0.219l-0.019,4.411l-0.019,4.411 c0,0.023-0.074,0.041-0.097,0.041h0c-0.023-0.001-0.1-0.019-0.1-0.042l-0.343-0.355l0.016-3.73l0.003-0.632l0.016-3.801 l-0.24-0.384l-5.111-2.267l-0.071-0.031l-5.011-2.222l-0.2-0.53C25.172,17.273,25.186,17.196,25.195,17.175z"/><path fill="#e7a919" d="M25.202,17.184c0.01-0.022,0.064-0.019,0.086-0.008l5.376,2.387l5.075,2.252 c0.106,0.047,0.52,0.28,0.564,0.383c0.039,0.061,0.061,0.136,0.061,0.215l-0.019,4.404l-0.019,4.404 c0,0.023-0.073,0.042-0.096,0.042h0c-0.023-0.001-0.099-0.019-0.099-0.043l-0.334-0.363l0.016-3.723l0.003-0.631l0.016-3.794 l-0.245-0.379l-5.102-2.264l-0.071-0.032l-5.001-2.219l-0.212-0.524C25.179,17.281,25.192,17.205,25.202,17.184z"/><path fill="#e8aa19" d="M25.208,17.193c0.01-0.022,0.064-0.02,0.087-0.009l5.375,2.387l5.065,2.248 c0.103,0.045,0.522,0.28,0.564,0.38c0.038,0.06,0.061,0.134,0.061,0.211l-0.019,4.397l-0.019,4.397 c0,0.024-0.072,0.043-0.096,0.043h0c-0.024-0.001-0.099-0.02-0.099-0.044l-0.325-0.37l0.016-3.716l0.003-0.63l0.017-3.787 l-0.25-0.375l-5.093-2.261l-0.071-0.032l-4.991-2.215l-0.223-0.518C25.186,17.29,25.198,17.214,25.208,17.193z"/><path fill="#e8ab19" d="M25.215,17.201c0.01-0.022,0.064-0.021,0.087-0.01l5.373,2.387l5.056,2.244 c0.101,0.044,0.524,0.279,0.565,0.377c0.038,0.059,0.06,0.131,0.06,0.207l-0.02,4.39l-0.02,4.39 c0,0.024-0.071,0.044-0.095,0.044h0c-0.024-0.001-0.098-0.02-0.098-0.045l-0.316-0.378l0.017-3.709l0.003-0.629l0.017-3.78 l-0.255-0.37l-5.084-2.257l-0.072-0.032l-4.981-2.211l-0.235-0.512C25.193,17.298,25.204,17.223,25.215,17.201z"/><path fill="#e9ac18" d="M25.221,17.21c0.01-0.023,0.064-0.022,0.087-0.011l5.371,2.387l5.046,2.241 c0.098,0.043,0.526,0.279,0.566,0.374c0.038,0.057,0.06,0.129,0.06,0.204l-0.02,4.383l-0.02,4.383 c0,0.025-0.07,0.045-0.095,0.045h0c-0.025-0.001-0.098-0.021-0.098-0.046l-0.307-0.385l0.017-3.702l0.003-0.628l0.017-3.773 l-0.26-0.365l-5.075-2.254l-0.072-0.032l-4.971-2.207l-0.247-0.506C25.2,17.306,25.211,17.232,25.221,17.21z"/><path fill="#eaad18" d="M25.228,17.219c0.01-0.023,0.064-0.023,0.088-0.011l5.369,2.386l5.037,2.237 c0.095,0.042,0.528,0.279,0.567,0.371c0.037,0.056,0.059,0.126,0.059,0.2l-0.021,4.375l-0.021,4.375 c0,0.025-0.069,0.045-0.094,0.045h0c-0.025-0.001-0.097-0.021-0.097-0.047l-0.298-0.393l0.017-3.695l0.003-0.626l0.018-3.765 l-0.265-0.36l-5.066-2.25l-0.072-0.032l-4.961-2.203l-0.259-0.5C25.207,17.314,25.217,17.241,25.228,17.219z"/><path fill="#eaae18" d="M25.234,17.227c0.011-0.024,0.064-0.024,0.088-0.012l5.367,2.386l5.027,2.233 c0.092,0.04,0.53,0.278,0.568,0.368c0.037,0.055,0.059,0.124,0.059,0.196l-0.021,4.368l-0.021,4.368 c0,0.026-0.068,0.046-0.093,0.046h0c-0.026-0.001-0.096-0.021-0.096-0.048l-0.289-0.4l0.018-3.688l0.003-0.625l0.018-3.758 l-0.27-0.355l-5.057-2.247l-0.073-0.032l-4.951-2.199l-0.271-0.494C25.215,17.323,25.223,17.25,25.234,17.227z"/><path fill="#ebaf18" d="M25.24,17.236c0.011-0.024,0.064-0.025,0.088-0.013l5.365,2.386l5.017,2.23 c0.089,0.039,0.532,0.278,0.568,0.364c0.037,0.053,0.059,0.121,0.059,0.192l-0.021,4.361l-0.021,4.361 c0,0.026-0.067,0.047-0.093,0.047h0c-0.026-0.001-0.096-0.022-0.096-0.048l-0.28-0.408l0.018-3.681l0.003-0.624l0.018-3.751 l-0.276-0.351l-5.048-2.244l-0.073-0.033l-4.941-2.196l-0.282-0.488C25.222,17.331,25.23,17.259,25.24,17.236z"/><path fill="#ecb018" d="M25.247,17.244c0.011-0.025,0.064-0.026,0.089-0.014l5.363,2.386l5.008,2.226 c0.087,0.038,0.533,0.278,0.569,0.361c0.036,0.052,0.058,0.118,0.058,0.188l-0.022,4.354L36.291,31.1 c0,0.027-0.066,0.048-0.092,0.048h0c-0.027-0.001-0.095-0.022-0.095-0.049l-0.271-0.415l0.018-3.674l0.003-0.623l0.019-3.744 l-0.281-0.346l-5.04-2.24l-0.073-0.033l-4.931-2.192l-0.294-0.482C25.229,17.339,25.236,17.269,25.247,17.244z"/><path fill="#ecb118" d="M25.253,17.253c0.011-0.025,0.064-0.027,0.089-0.015l5.362,2.385l4.998,2.222 c0.084,0.037,0.535,0.277,0.57,0.358c0.036,0.051,0.058,0.116,0.058,0.185l-0.022,4.347l-0.022,4.347 c0,0.027-0.065,0.049-0.092,0.049h0c-0.027-0.001-0.094-0.023-0.094-0.05l-0.262-0.423l0.019-3.667l0.003-0.621l0.019-3.737 l-0.286-0.341l-5.031-2.237l-0.074-0.033l-4.921-2.188l-0.306-0.476C25.236,17.348,25.242,17.278,25.253,17.253z"/><path fill="#edb218" d="M25.26,17.262c0.011-0.026,0.064-0.028,0.09-0.015l5.36,2.385l4.989,2.219 c0.081,0.036,0.537,0.277,0.571,0.355c0.036,0.05,0.057,0.113,0.057,0.181l-0.023,4.34l-0.023,4.34 c0,0.028-0.064,0.05-0.091,0.05h0c-0.028-0.001-0.094-0.023-0.094-0.051l-0.254-0.431l0.019-3.66l0.003-0.62l0.019-3.73 l-0.291-0.336l-5.022-2.233l-0.074-0.033l-4.911-2.184l-0.318-0.47C25.243,17.356,25.248,17.287,25.26,17.262z"/><path fill="#edb318" d="M25.266,17.27c0.012-0.026,0.064-0.029,0.09-0.016l5.358,2.385l4.979,2.215 c0.078,0.034,0.539,0.277,0.572,0.352c0.036,0.048,0.057,0.111,0.057,0.177l-0.023,4.332l-0.023,4.332 c0,0.028-0.063,0.051-0.091,0.051h0c-0.028-0.001-0.093-0.023-0.093-0.052l-0.245-0.438l0.019-3.653l0.003-0.619l0.02-3.722 l-0.296-0.331l-5.013-2.23l-0.074-0.033l-4.901-2.18l-0.33-0.464C25.25,17.364,25.255,17.296,25.266,17.27z"/><path fill="#eeb417" d="M25.273,17.279c0.012-0.026,0.064-0.03,0.09-0.017l5.356,2.385l4.97,2.211 c0.075,0.033,0.541,0.276,0.573,0.349c0.035,0.047,0.056,0.108,0.056,0.173l-0.023,4.325l-0.023,4.325 c0,0.029-0.062,0.052-0.09,0.052h0c-0.029-0.001-0.093-0.024-0.093-0.053l-0.236-0.446l0.02-3.646l0.003-0.618l0.02-3.715 l-0.301-0.327l-5.004-2.227l-0.075-0.033l-4.891-2.176l-0.342-0.458C25.257,17.372,25.261,17.305,25.273,17.279z"/><path fill="#efb517" d="M25.279,17.288c0.012-0.027,0.063-0.031,0.091-0.018l5.354,2.385l4.96,2.208 c0.073,0.032,0.543,0.276,0.573,0.346c0.035,0.046,0.056,0.106,0.056,0.169l-0.024,4.318l-0.024,4.318 c0,0.029-0.061,0.052-0.09,0.052h0c-0.029-0.001-0.092-0.024-0.092-0.054l-0.227-0.453l0.02-3.639l0.003-0.617l0.02-3.708 l-0.306-0.322L30.6,20.051l-0.075-0.033l-4.881-2.172l-0.353-0.452C25.264,17.381,25.267,17.314,25.279,17.288z"/><path fill="#efb617" d="M25.286,17.296c0.012-0.027,0.063-0.032,0.091-0.019l5.352,2.384l4.951,2.204 c0.07,0.031,0.545,0.275,0.574,0.343c0.035,0.044,0.056,0.103,0.056,0.166l-0.024,4.311l-0.024,4.311 c0,0.029-0.06,0.053-0.089,0.053h0c-0.03-0.001-0.091-0.025-0.091-0.055l-0.218-0.461l0.02-3.632l0.003-0.615l0.021-3.701 l-0.311-0.317l-4.986-2.22l-0.075-0.034l-4.871-2.169l-0.365-0.446C25.271,17.389,25.273,17.323,25.286,17.296z"/><path fill="#f0b717" d="M25.292,17.305c0.012-0.028,0.063-0.033,0.091-0.019l5.351,2.384l4.941,2.2 c0.067,0.029,0.547,0.275,0.575,0.34c0.034,0.043,0.055,0.101,0.055,0.162l-0.025,4.304l-0.025,4.304 c0,0.03-0.059,0.054-0.089,0.054h0c-0.03-0.001-0.091-0.025-0.091-0.056l-0.209-0.468l0.021-3.625l0.004-0.614l0.021-3.694 l-0.316-0.312l-4.977-2.216l-0.076-0.034l-4.861-2.165l-0.377-0.44C25.278,17.397,25.28,17.332,25.292,17.305z"/><path fill="#f1b817" d="M25.299,17.314c0.013-0.028,0.063-0.034,0.092-0.02l5.349,2.384l4.932,2.197 c0.064,0.028,0.549,0.275,0.576,0.337c0.034,0.042,0.055,0.098,0.055,0.158l-0.025,4.297l-0.025,4.297 c0,0.03-0.058,0.055-0.088,0.055h0c-0.031-0.001-0.09-0.025-0.09-0.057l-0.2-0.476l0.021-3.618l0.004-0.613l0.021-3.687 l-0.321-0.307l-4.968-2.213l-0.076-0.034l-4.852-2.161l-0.389-0.434C25.285,17.405,25.286,17.341,25.299,17.314z"/><path fill="#f1b917" d="M25.305,17.322c0.013-0.029,0.063-0.035,0.092-0.021l5.347,2.384l4.922,2.193 c0.062,0.027,0.551,0.274,0.577,0.334c0.034,0.04,0.054,0.096,0.054,0.154l-0.025,4.289l-0.025,4.289 c0,0.031-0.057,0.056-0.088,0.056h0c-0.031-0.001-0.089-0.026-0.089-0.057l-0.191-0.483l0.021-3.611l0.004-0.612l0.022-3.679 l-0.327-0.303l-4.959-2.209l-0.076-0.034l-4.842-2.157l-0.401-0.428C25.292,17.414,25.292,17.35,25.305,17.322z"/><path fill="#f2ba17" d="M25.312,17.331c0.013-0.029,0.063-0.036,0.093-0.022l5.345,2.383l4.912,2.189 c0.059,0.026,0.553,0.274,0.577,0.331c0.033,0.039,0.054,0.093,0.054,0.15l-0.026,4.282l-0.026,4.282 c0,0.031-0.056,0.057-0.087,0.057h0c-0.032-0.001-0.089-0.026-0.089-0.058l-0.182-0.491l0.022-3.604l0.004-0.61l0.022-3.672 l-0.332-0.298l-4.95-2.206l-0.077-0.034l-4.832-2.153l-0.413-0.422C25.299,17.422,25.299,17.359,25.312,17.331z"/><path fill="#f2bb17" d="M25.318,17.34c0.013-0.03,0.063-0.037,0.093-0.023l5.343,2.383l4.903,2.186 c0.056,0.025,0.555,0.274,0.578,0.328c0.033,0.038,0.053,0.09,0.053,0.146l-0.026,4.275l-0.026,4.275 c0,0.032-0.055,0.058-0.087,0.058h0c-0.032-0.001-0.088-0.027-0.088-0.059l-0.173-0.498l0.022-3.597l0.004-0.609l0.022-3.665 L35.6,22.246l-4.941-2.203l-0.077-0.034l-4.822-2.149l-0.424-0.416C25.306,17.43,25.305,17.368,25.318,17.34z"/><path fill="#f3bc16" d="M25.325,17.348c0.013-0.03,0.063-0.038,0.093-0.023l5.341,2.383l4.893,2.182 c0.053,0.023,0.557,0.273,0.579,0.325c0.033,0.037,0.053,0.088,0.053,0.143l-0.027,4.268l-0.027,4.268 c0,0.032-0.054,0.059-0.086,0.059h0c-0.033-0.001-0.088-0.027-0.088-0.06l-0.164-0.506l0.022-3.59l0.004-0.608l0.023-3.658 L35.6,22.241l-4.932-2.199l-0.077-0.035l-4.812-2.146l-0.436-0.41C25.313,17.438,25.311,17.377,25.325,17.348z"/><path fill="#f4bd16" d="M25.331,17.357c0.014-0.031,0.063-0.039,0.094-0.024l5.34,2.383l4.884,2.178 c0.05,0.022,0.559,0.273,0.58,0.322c0.033,0.035,0.053,0.085,0.053,0.139l-0.027,4.261l-0.027,4.261 c0,0.033-0.053,0.059-0.086,0.059h0c-0.033-0.001-0.087-0.027-0.087-0.061l-0.155-0.514l0.023-3.583l0.004-0.607l0.023-3.651 l-0.347-0.283l-4.923-2.196L30.6,20.006l-4.802-2.142l-0.448-0.404C25.32,17.447,25.317,17.387,25.331,17.357z"/><path fill="#f4be16" d="M25.338,17.365c0.014-0.031,0.063-0.04,0.094-0.025l5.338,2.382l4.874,2.175 c0.048,0.021,0.561,0.273,0.581,0.319c0.032,0.034,0.052,0.083,0.052,0.135l-0.027,4.254l-0.027,4.254 c0,0.033-0.052,0.06-0.085,0.06h0c-0.034-0.001-0.086-0.028-0.086-0.062l-0.146-0.521l0.023-3.576l0.004-0.606l0.023-3.644 l-0.352-0.278l-4.914-2.192l-0.078-0.035l-4.792-2.138l-0.46-0.398C25.328,17.455,25.324,17.396,25.338,17.365z"/><path fill="#f5bf16" d="M25.344,17.374c0.014-0.031,0.063-0.041,0.094-0.026l5.336,2.382l4.865,2.171 c0.045,0.02,0.563,0.272,0.581,0.315c0.032,0.033,0.052,0.08,0.052,0.131l-0.028,4.246l-0.028,4.246 c0,0.034-0.051,0.061-0.085,0.061h0c-0.034-0.001-0.086-0.028-0.086-0.063l-0.137-0.529l0.023-3.569l0.004-0.604l0.024-3.636 l-0.357-0.274l-4.905-2.189l-0.078-0.035l-4.782-2.134l-0.472-0.392C25.335,17.463,25.33,17.405,25.344,17.374z"/><path fill="#f6c016" d="M25.35,17.383c0.014-0.032,0.063-0.042,0.095-0.027l5.334,2.382l4.855,2.167 c0.042,0.018,0.565,0.272,0.582,0.312c0.032,0.031,0.051,0.078,0.051,0.127l-0.028,4.239l-0.028,4.239 c0,0.034-0.05,0.062-0.084,0.062h0c-0.035-0.001-0.085-0.029-0.085-0.064l-0.129-0.536l0.024-3.562l0.004-0.603l0.024-3.629 l-0.362-0.269l-4.896-2.186l-0.079-0.035l-4.772-2.13l-0.483-0.386C25.342,17.471,25.336,17.414,25.35,17.383z"/><path fill="#f6c116" d="M25.357,17.391c0.014-0.032,0.062-0.043,0.095-0.027l5.332,2.382l4.846,2.164 c0.039,0.017,0.567,0.271,0.583,0.309c0.031,0.03,0.051,0.075,0.051,0.124l-0.029,4.232l-0.029,4.232 c0,0.035-0.049,0.063-0.084,0.063h0c-0.035-0.001-0.084-0.029-0.084-0.065l-0.12-0.544l0.024-3.555l0.004-0.602l0.025-3.622 l-0.367-0.264l-4.887-2.182L30.638,20l-4.762-2.126l-0.495-0.38C25.349,17.48,25.342,17.423,25.357,17.391z"/><path fill="#f7c216" d="M25.363,17.4c0.015-0.033,0.062-0.044,0.096-0.028l5.33,2.382l4.836,2.16 c0.036,0.016,0.569,0.271,0.584,0.306c0.031,0.029,0.051,0.073,0.051,0.12l-0.029,4.225l-0.029,4.225 c0,0.035-0.048,0.064-0.083,0.064h0c-0.036-0.001-0.084-0.029-0.084-0.066l-0.111-0.551l0.024-3.548l0.004-0.601l0.025-3.615 l-0.372-0.259l-4.878-2.179l-0.079-0.035l-4.752-2.122l-0.507-0.374C25.356,17.488,25.349,17.432,25.363,17.4z"/><path fill="#f7c316" d="M25.37,17.409c0.015-0.033,0.062-0.045,0.096-0.029l5.328,2.381l4.826,2.156 c0.034,0.015,0.571,0.271,0.585,0.303c0.031,0.027,0.05,0.07,0.05,0.116l-0.029,4.218l-0.029,4.218 c0,0.036-0.047,0.065-0.082,0.065h0c-0.036-0.001-0.083-0.03-0.083-0.066l-0.102-0.559l0.025-3.541l0.004-0.599l0.025-3.608 l-0.378-0.254l-4.869-2.175l-0.08-0.036l-4.742-2.119l-0.519-0.368C25.363,17.496,25.355,17.441,25.37,17.409z"/><path fill="#f8c415" d="M25.376,17.417c0.015-0.034,0.062-0.046,0.096-0.03l5.327,2.381l4.817,2.153 c0.031,0.013,0.573,0.27,0.586,0.3c0.03,0.026,0.05,0.068,0.05,0.112l-0.03,4.211l-0.03,4.211c0,0.036-0.046,0.066-0.082,0.066 h0c-0.037-0.001-0.083-0.03-0.083-0.067l-0.093-0.566l0.025-3.534l0.004-0.598l0.026-3.601l-0.383-0.25l-4.86-2.172l-0.08-0.036 l-4.732-2.115l-0.531-0.362C25.37,17.505,25.361,17.45,25.376,17.417z"/><path fill="#f9c515" d="M25.383,17.426c0.015-0.034,0.062-0.047,0.097-0.031l5.325,2.381l4.807,2.149 c0.028,0.012,0.575,0.27,0.586,0.297c0.03,0.025,0.049,0.065,0.049,0.108l-0.03,4.203l-0.03,4.203 c0,0.037-0.045,0.066-0.081,0.066h0c-0.037-0.001-0.082-0.031-0.082-0.068l-0.084-0.574l0.025-3.527l0.004-0.597l0.026-3.594 l-0.388-0.245l-4.851-2.169l-0.08-0.036l-4.722-2.111l-0.543-0.356C25.377,17.513,25.368,17.459,25.383,17.426z"/><path fill="#f9c615" d="M25.389,17.435c0.016-0.035,0.062-0.048,0.097-0.031l5.323,2.381l4.798,2.145 c0.025,0.011,0.577,0.27,0.587,0.294c0.03,0.024,0.049,0.062,0.049,0.105l-0.031,4.196l-0.031,4.196 c0,0.037-0.044,0.067-0.081,0.067h0c-0.038-0.001-0.081-0.031-0.081-0.069l-0.075-0.582l0.026-3.52l0.004-0.596l0.026-3.586 l-0.393-0.24l-4.842-2.165l-0.081-0.036l-4.712-2.107l-0.554-0.35C25.384,17.521,25.374,17.468,25.389,17.435z"/><path fill="#fac715" d="M25.396,17.443c0.016-0.035,0.062-0.049,0.097-0.032l5.321,2.38l4.788,2.142 c0.022,0.01,0.579,0.269,0.588,0.291c0.03,0.022,0.048,0.06,0.048,0.101l-0.031,4.189l-0.031,4.189 c0,0.038-0.043,0.068-0.08,0.068h0c-0.038-0.001-0.081-0.031-0.081-0.07l-0.066-0.589l0.026-3.513l0.004-0.595l0.027-3.579 l-0.398-0.235l-4.833-2.162l-0.081-0.036l-4.702-2.103l-0.566-0.344C25.391,17.529,25.38,17.477,25.396,17.443z"/><path fill="#fbc815" d="M25.402,17.452c0.016-0.035,0.062-0.05,0.098-0.033l5.319,2.38l4.779,2.138 c0.02,0.009,0.581,0.269,0.589,0.288c0.029,0.021,0.048,0.057,0.048,0.097l-0.031,4.182l-0.031,4.182 c0,0.038-0.042,0.069-0.08,0.069h0c-0.039-0.001-0.08-0.032-0.08-0.071l-0.057-0.597l0.026-3.506l0.004-0.593l0.027-3.572 l-0.403-0.23l-4.824-2.158l-0.081-0.036l-4.693-2.099l-0.578-0.338C25.398,17.538,25.386,17.486,25.402,17.452z"/><path fill="#fbc915" d="M25.409,17.46c0.016-0.036,0.062-0.051,0.098-0.034l5.317,2.38l4.769,2.134 c0.017,0.007,0.583,0.269,0.59,0.285c0.029,0.02,0.048,0.055,0.048,0.093l-0.032,4.175l-0.032,4.175 c0,0.039-0.041,0.07-0.079,0.07h0c-0.039-0.001-0.079-0.032-0.079-0.072l-0.048-0.604l0.027-3.499l0.005-0.592l0.027-3.565 l-0.408-0.226l-4.815-2.155l-0.082-0.037l-4.683-2.096l-0.59-0.332C25.405,17.546,25.393,17.495,25.409,17.46z"/><path fill="#fcca15" d="M25.415,17.469c0.016-0.036,0.062-0.052,0.099-0.035l5.316,2.38l4.76,2.131 c0.014,0.006,0.585,0.268,0.59,0.282c0.029,0.018,0.047,0.052,0.047,0.089l-0.032,4.168l-0.032,4.168 c0,0.039-0.04,0.071-0.079,0.071h0c-0.04-0.001-0.079-0.033-0.079-0.073l-0.039-0.612l0.027-3.492l0.005-0.591l0.028-3.558 l-0.413-0.221l-4.806-2.152l-0.082-0.037l-4.673-2.092l-0.602-0.326C25.412,17.554,25.399,17.505,25.415,17.469z"/><path fill="#fccb15" d="M25.422,17.478c0.017-0.037,0.062-0.053,0.099-0.035l5.314,2.38l4.75,2.127 c0.011,0.005,0.587,0.268,0.591,0.279c0.028,0.017,0.047,0.05,0.047,0.085l-0.033,4.161l-0.033,4.161 c0,0.04-0.039,0.072-0.078,0.072h0C36.038,30.705,36,30.673,36,30.632l-0.03-0.619l0.027-3.485l0.005-0.59l0.028-3.551 l-0.418-0.216l-4.797-2.148l-0.082-0.037l-4.663-2.088l-0.614-0.32C25.419,17.562,25.405,17.514,25.422,17.478z"/><path fill="#fdcc14" d="M25.428,17.486c0.017-0.037,0.062-0.054,0.099-0.036l5.312,2.379l4.741,2.123 c0.008,0.004,0.589,0.268,0.592,0.276c0.028,0.016,0.046,0.047,0.046,0.082l-0.033,4.153l-0.033,4.153 c0,0.04-0.038,0.073-0.078,0.073h0c-0.041-0.001-0.078-0.033-0.078-0.074l-0.021-0.627l0.028-3.478l0.005-0.588l0.028-3.543 l-0.423-0.211l-4.788-2.145l-0.083-0.037l-4.653-2.084l-0.625-0.314C25.426,17.571,25.411,17.523,25.428,17.486z"/><path fill="#fecd14" d="M25.435,17.495c0.017-0.038,0.062-0.055,0.1-0.037l5.31,2.379l4.731,2.119 c0.006,0.002,0.591,0.267,0.593,0.273c0.028,0.014,0.046,0.045,0.046,0.078l-0.033,4.146l-0.033,4.146 c0,0.041-0.037,0.073-0.077,0.073h0c-0.041-0.001-0.077-0.034-0.077-0.075l-0.012-0.634l0.028-3.471l0.005-0.587l0.029-3.536 l-0.429-0.206l-4.779-2.141l-0.083-0.037l-4.643-2.08l-0.637-0.308C25.433,17.579,25.418,17.532,25.435,17.495z"/><path fill="#fece14" d="M25.441,17.504c0.017-0.038,0.061-0.056,0.1-0.038l5.308,2.379l4.721,2.116 c0.003,0.001,0.592,0.267,0.594,0.27c0.028,0.013,0.045,0.042,0.045,0.074l-0.034,4.139l-0.034,4.139 c0,0.041-0.036,0.074-0.077,0.074h0c-0.042-0.001-0.076-0.034-0.076-0.076l-0.004-0.642l0.028-3.464l0.005-0.586l0.029-3.529 l-0.434-0.202l-4.77-2.138l-0.083-0.037l-4.633-2.076l-0.649-0.302C25.44,17.587,25.424,17.541,25.441,17.504z"/><path fill="#ffcf14" d="M36.061,30.64L36.061,30.64c-0.043-0.001-0.076-0.035-0.076-0.077l0.034-4.107l0.034-4.107 l-5.284-2.369l-5.284-2.369c-0.038-0.017-0.055-0.062-0.038-0.1c0.017-0.039,0.061-0.057,0.1-0.039l5.306,2.379l5.306,2.379 c0.027,0.012,0.045,0.04,0.045,0.07l-0.034,4.132l-0.034,4.132C36.137,30.606,36.103,30.64,36.061,30.64z"/><radialGradient id="0dAPj74t0n6MXyoxLtMdSd" cx="36.024" cy="31.889" r="1.585" gradientTransform="matrix(1 0 0 .9606 0 1.256)" gradientUnits="userSpaceOnUse"><stop offset=".148" stop-color="#ffcf14"/><stop offset=".355" stop-color="#fdcc14"/><stop offset=".533" stop-color="#f6c116"/><stop offset=".7" stop-color="#ebaf18"/><stop offset=".859" stop-color="#db971b"/><stop offset="1" stop-color="#c97a1f"/></radialGradient><circle cx="36.024" cy="31.889" r="1.585" fill="url(#0dAPj74t0n6MXyoxLtMdSd)"/><path fill="#262626" d="M26.211,16.515c-0.351-0.379-1.207-0.648-2.211-0.648s-1.86,0.269-2.211,0.648h-0.173v0.38 c0,0.568,1.067,1.028,2.384,1.028s2.384-0.46,2.384-1.028v-0.38H26.211z"/><radialGradient id="0dAPj74t0n6MXyoxLtMdSe" cx="24" cy="16.515" r="2.584" gradientTransform="matrix(1 0 0 .426 0 9.48)" gradientUnits="userSpaceOnUse"><stop offset="0" stop-color="#383838"/><stop offset=".279" stop-color="#2d2d2d"/><stop offset=".766" stop-color="#101010"/><stop offset="1"/></radialGradient><ellipse cx="24" cy="16.515" fill="url(#0dAPj74t0n6MXyoxLtMdSe)" rx="2.384" ry="1.028"/></svg>