<svg width="12" height="18" viewBox="0 0 12 18" fill="none" xmlns="http://www.w3.org/2000/svg">
<path d="M5.16074 0.464747C3.57966 0.0218661 2.04508 0.15473 0.688758 0.71276C0.130729 0.943058 -0.0165289 1.79339 0.448495 2.22741C1.33397 3.05442 2.04723 4.09634 2.53654 5.27758C3.02585 6.45881 3.27892 7.74972 3.27739 9.05663C3.27892 10.3635 3.02585 11.6544 2.53654 12.8357C2.04723 14.0169 1.33397 15.0588 0.448495 15.8858C-0.00877848 16.3199 0.122978 17.1702 0.688758 17.3916C1.4948 17.7282 2.3706 17.9142 3.27739 17.9142C7.96639 17.9142 11.6866 13.1488 10.927 7.63941C10.4543 4.16723 8.14465 1.29736 5.16074 0.464747V0.464747Z" fill="#FAFAFA"/>
</svg>
