<svg width="27" height="26" viewBox="0 0 27 26" fill="none" xmlns="http://www.w3.org/2000/svg">
<g filter="url(#filter0_d_1197_117)">
<path d="M12.9606 17.3873V15.2085C12.9606 15.0689 13.016 14.9351 13.1147 14.8364C13.2134 14.7377 13.3472 14.6822 13.4868 14.6822C13.6264 14.6822 13.7602 14.7377 13.8589 14.8364C13.9576 14.9351 14.013 15.0689 14.013 15.2085V17.3873C14.013 17.5268 13.9576 17.6607 13.8589 17.7594C13.7602 17.858 13.6264 17.9135 13.4868 17.9135C13.3472 17.9135 13.2134 17.858 13.1147 17.7594C13.016 17.6607 12.9606 17.5268 12.9606 17.3873ZM19.0053 15.3177L17.465 13.7781C17.414 13.7297 17.3733 13.6717 17.3452 13.6073C17.317 13.5429 17.3021 13.4736 17.3012 13.4033C17.3003 13.3331 17.3134 13.2634 17.3399 13.1983C17.3664 13.1332 17.4056 13.0741 17.4553 13.0244C17.5049 12.9748 17.564 12.9355 17.6291 12.9091C17.6942 12.8826 17.7639 12.8695 17.8341 12.8704C17.9044 12.8713 17.9737 12.8862 18.0381 12.9143C18.1025 12.9425 18.1606 12.9832 18.2089 13.0341L19.7478 14.576C19.834 14.6769 19.8789 14.8067 19.8735 14.9393C19.8681 15.072 19.8127 15.1976 19.7185 15.2912C19.6243 15.3847 19.4982 15.4392 19.3656 15.4437C19.2329 15.4482 19.1034 15.4024 19.0031 15.3155L19.0053 15.3177ZM7.22431 15.3177C7.17522 15.269 7.13625 15.2111 7.10966 15.1472C7.08307 15.0834 7.06938 15.0149 7.06938 14.9457C7.06938 14.8766 7.08307 14.8081 7.10966 14.7443C7.13625 14.6804 7.17522 14.6225 7.22431 14.5737L8.76465 13.0334C8.81303 12.9825 8.87112 12.9417 8.93548 12.9136C8.99985 12.8855 9.0692 12.8705 9.13944 12.8696C9.20968 12.8687 9.2794 12.8819 9.34447 12.9083C9.40954 12.9348 9.46865 12.974 9.51833 13.0237C9.568 13.0734 9.60722 13.1325 9.63369 13.1976C9.66015 13.2626 9.67332 13.3323 9.67241 13.4026C9.67151 13.4728 9.65655 13.5422 9.62842 13.6065C9.60029 13.6709 9.55956 13.729 9.50862 13.7774L7.96828 15.317C7.91957 15.3661 7.86162 15.405 7.79778 15.4316C7.73393 15.4582 7.66546 15.4719 7.5963 15.4719C7.52714 15.4719 7.45866 15.4582 7.39482 15.4316C7.33097 15.405 7.27303 15.3668 7.22431 15.3177ZM9.29311 9.05524C9.29311 7.94282 9.73502 6.87595 10.5216 6.08934C11.3082 5.30274 12.3751 4.86083 13.4875 4.86083C14.6 4.86083 15.6668 5.30274 16.4534 6.08934C17.24 6.87595 17.682 7.94282 17.682 9.05524C17.682 10.1677 17.24 11.2345 16.4534 12.0211C15.6668 12.8078 14.6 13.2497 13.4875 13.2497C12.3751 13.2497 11.3082 12.8078 10.5216 12.0211C9.73502 11.2345 9.29311 10.1677 9.29311 9.05524ZM10.3448 9.05524C10.3358 9.47378 10.4104 9.8899 10.5643 10.2792C10.7182 10.6685 10.9483 11.0232 11.2411 11.3224C11.5338 11.6216 11.8834 11.8593 12.2693 12.0216C12.6552 12.1839 13.0696 12.2675 13.4883 12.2675C13.9069 12.2675 14.3213 12.1839 14.7072 12.0216C15.0931 11.8593 15.4427 11.6216 15.7355 11.3224C16.0283 11.0232 16.2584 10.6685 16.4123 10.2792C16.5662 9.8899 16.6408 9.47378 16.6317 9.05524C16.6139 8.23335 16.2749 7.45113 15.6873 6.87616C15.0997 6.30119 14.3104 5.97921 13.4883 5.97921C12.6662 5.97921 11.8768 6.30119 11.2892 6.87616C10.7017 7.45113 10.3627 8.23335 10.3448 9.05524ZM19.6378 9.58148C19.5687 9.58148 19.5003 9.56787 19.4364 9.54143C19.3726 9.51498 19.3146 9.47622 19.2657 9.42735C19.2168 9.37849 19.1781 9.32047 19.1516 9.25663C19.1252 9.19278 19.1116 9.12435 19.1116 9.05524C19.1116 8.98614 19.1252 8.91771 19.1516 8.85386C19.1781 8.79001 19.2168 8.732 19.2657 8.68314C19.3146 8.63427 19.3726 8.59551 19.4364 8.56906C19.5003 8.54262 19.5687 8.529 19.6378 8.529H21.8166C21.8857 8.529 21.9541 8.54262 22.018 8.56906C22.0818 8.59551 22.1398 8.63427 22.1887 8.68314C22.2376 8.732 22.2763 8.79001 22.3028 8.85386C22.3292 8.91771 22.3428 8.98614 22.3428 9.05524C22.3428 9.12435 22.3292 9.19278 22.3028 9.25663C22.2763 9.32047 22.2376 9.37849 22.1887 9.42735C22.1398 9.47622 22.0818 9.51498 22.018 9.54143C21.9541 9.56787 21.8857 9.58148 21.8166 9.58148H19.6378ZM5.15478 9.58148C5.08567 9.58148 5.01724 9.56787 4.9534 9.54143C4.88955 9.51498 4.83154 9.47622 4.78267 9.42735C4.73381 9.37849 4.69504 9.32047 4.6686 9.25663C4.64215 9.19278 4.62854 9.12435 4.62854 9.05524C4.62854 8.98614 4.64215 8.91771 4.6686 8.85386C4.69504 8.79001 4.73381 8.732 4.78267 8.68314C4.83154 8.63427 4.88955 8.59551 4.9534 8.56906C5.01724 8.54262 5.08567 8.529 5.15478 8.529H7.33428C7.40339 8.529 7.47182 8.54262 7.53567 8.56906C7.59951 8.59551 7.65753 8.63427 7.70639 8.68314C7.75526 8.732 7.79402 8.79001 7.82047 8.85386C7.84691 8.91771 7.86052 8.98614 7.86052 9.05524C7.86052 9.12435 7.84691 9.19278 7.82047 9.25663C7.79402 9.32047 7.75526 9.37849 7.70639 9.42735C7.65753 9.47622 7.59951 9.51498 7.53567 9.54143C7.47182 9.56787 7.40339 9.58148 7.33428 9.58148H5.15478ZM17.4635 5.07708C17.4144 5.02837 17.3754 4.97042 17.3488 4.90657C17.3222 4.84273 17.3086 4.77425 17.3086 4.70509C17.3086 4.63593 17.3222 4.56746 17.3488 4.50361C17.3754 4.43977 17.4144 4.38182 17.4635 4.33311L19.0038 2.79277C19.0522 2.74184 19.1103 2.7011 19.1747 2.67297C19.239 2.64484 19.3084 2.62988 19.3786 2.62898C19.4489 2.62807 19.5186 2.64124 19.5836 2.66771C19.6487 2.69417 19.7078 2.73339 19.7575 2.78307C19.8072 2.83274 19.8464 2.89185 19.8729 2.95692C19.8993 3.022 19.9125 3.09171 19.9116 3.16195C19.9107 3.23219 19.8957 3.30154 19.8676 3.36591C19.8395 3.43028 19.7987 3.48836 19.7478 3.53674L18.2075 5.07708C18.1587 5.12617 18.1008 5.16514 18.0369 5.19173C17.9731 5.21832 17.9046 5.23201 17.8355 5.23201C17.7663 5.23201 17.6978 5.21832 17.634 5.19173C17.5701 5.16514 17.5122 5.12617 17.4635 5.07708ZM8.76318 5.07708L7.22431 3.53821C7.17338 3.48984 7.13264 3.43175 7.10451 3.36738C7.07638 3.30302 7.06142 3.23367 7.06052 3.16343C7.05962 3.09318 7.07278 3.02347 7.09925 2.9584C7.12571 2.89333 7.16494 2.83421 7.21461 2.78454C7.26428 2.73487 7.3234 2.69565 7.38847 2.66918C7.45354 2.64272 7.52325 2.62955 7.59349 2.63045C7.66373 2.63136 7.73308 2.64632 7.79745 2.67445C7.86182 2.70258 7.91991 2.74331 7.96828 2.79425L9.50862 4.33459C9.55956 4.38296 9.60029 4.44105 9.62842 4.50542C9.65655 4.56979 9.67151 4.63913 9.67241 4.70938C9.67332 4.77962 9.66015 4.84933 9.63369 4.9144C9.60722 4.97947 9.568 5.03859 9.51833 5.08826C9.46865 5.13793 9.40954 5.17716 9.34447 5.20362C9.2794 5.23008 9.20968 5.24325 9.13944 5.24235C9.0692 5.24144 8.99985 5.22648 8.93548 5.19835C8.87112 5.17022 8.81303 5.12949 8.76465 5.07856L8.76318 5.07708ZM12.9591 2.90422V0.726191C12.9591 0.586623 13.0145 0.452772 13.1132 0.354083C13.2119 0.255394 13.3457 0.199951 13.4853 0.199951C13.6249 0.199951 13.7587 0.255394 13.8574 0.354083C13.9561 0.452772 14.0116 0.586623 14.0116 0.726191V2.90496C14.0116 3.04452 13.9561 3.17837 13.8574 3.27706C13.7587 3.37575 13.6249 3.4312 13.4853 3.4312C13.3457 3.4312 13.2119 3.37575 13.1132 3.27706C13.0145 3.17837 12.9591 3.04379 12.9591 2.90422Z" fill="#3C6E71"/>
</g>
<defs>
<filter id="filter0_d_1197_117" x="0.62854" y="0.199951" width="25.7142" height="25.7135" filterUnits="userSpaceOnUse" color-interpolation-filters="sRGB">
<feFlood flood-opacity="0" result="BackgroundImageFix"/>
<feColorMatrix in="SourceAlpha" type="matrix" values="0 0 0 0 0 0 0 0 0 0 0 0 0 0 0 0 0 0 127 0" result="hardAlpha"/>
<feOffset dy="4"/>
<feGaussianBlur stdDeviation="2"/>
<feComposite in2="hardAlpha" operator="out"/>
<feColorMatrix type="matrix" values="0 0 0 0 0 0 0 0 0 0 0 0 0 0 0 0 0 0 0.25 0"/>
<feBlend mode="normal" in2="BackgroundImageFix" result="effect1_dropShadow_1197_117"/>
<feBlend mode="normal" in="SourceGraphic" in2="effect1_dropShadow_1197_117" result="shape"/>
</filter>
</defs>
</svg>
